{
.appVersion = "1350";
date = "2021-02-12 02:02:59 +0000";
familyName = "Westwood Sans";
fontMaster = (
{
ascender = 800;
capHeight = 735;
descender = -230;
id = "EC678C9A-BAF7-4529-BA66-EDFBF106CBF7";
xHeight = 500;
},
{
ascender = 800;
capHeight = 735;
descender = -230;
id = "5B189D8C-80C2-4E76-949E-52A655B49706";
weight = Bold;
weightValue = 200;
xHeight = 500;
}
);
glyphs = (
{
glyphname = A;
lastChange = "2021-02-10 01:46:22 +0000";
layers = (
{
layerId = "EC678C9A-BAF7-4529-BA66-EDFBF106CBF7";
paths = (
{
closed = 1;
nodes = (
"447 735 LINE",
"169 0 LINE",
"40 0 LINE",
"316 735 LINE"
);
},
{
closed = 1;
nodes = (
"729 0 LINE",
"606 0 LINE",
"331 735 LINE",
"453 735 LINE"
);
},
{
closed = 1;
nodes = (
"600 228 LINE",
"600 114 LINE",
"169 114 LINE",
"169 228 LINE"
);
}
);
width = 769;
},
{
layerId = "5B189D8C-80C2-4E76-949E-52A655B49706";
width = 600;
}
);
unicode = 0041;
},
{
glyphname = B;
lastChange = "2021-02-10 00:34:34 +0000";
layers = (
{
layerId = "EC678C9A-BAF7-4529-BA66-EDFBF106CBF7";
paths = (
{
closed = 1;
nodes = (
"40 735 LINE",
"40 0 LINE",
"155 0 LINE",
"155 436 LINE",
"155 628 LINE",
"155 735 LINE"
);
},
{
closed = 1;
nodes = (
"78 628 LINE",
"331 628 LINE",
"331 735 LINE",
"78 735 LINE"
);
},
{
closed = 1;
nodes = (
"78 329 LINE",
"331 329 LINE",
"331 436 LINE",
"155 436 LINE",
"78 436 LINE"
);
},
{
closed = 1;
nodes = (
"40 0 LINE",
"354 0 LINE",
"354 107 LINE",
"163 107 LINE",
"155 107 LINE",
"40 107 LINE"
);
},
{
closed = 1;
nodes = (
"209 735 OFFCURVE",
"117 659 OFFCURVE",
"117 528 CURVE",
"117 406 OFFCURVE",
"209 345 OFFCURVE",
"323 345 CURVE",
"438 345 OFFCURVE",
"538 429 OFFCURVE",
"538 544 CURVE",
"538 651 OFFCURVE",
"438 735 OFFCURVE",
"323 735 CURVE"
);
},
{
closed = 1;
nodes = (
"155 628 LINE",
"331 628 LINE",
"331 628 LINE",
"331 628 OFFCURVE",
"331 628 OFFCURVE",
"331 628 CURVE",
"392 628 OFFCURVE",
"430 582 OFFCURVE",
"430 528 CURVE",
"430 475 OFFCURVE",
"392 436 OFFCURVE",
"331 436 CURVE",
"331 436 OFFCURVE",
"331 436 OFFCURVE",
"331 436 CURVE",
"331 436 LINE",
"331 436 LINE",
"155 436 LINE"
);
},
{
closed = 1;
nodes = (
"155 306 LINE",
"140 276 OFFCURVE",
"132 245 OFFCURVE",
"132 214 CURVE",
"132 184 OFFCURVE",
"140 153 OFFCURVE",
"155 123 CURVE"
);
},
{
closed = 1;
nodes = (
"155 107 LINE",
"163 107 LINE",
"201 38 OFFCURVE",
"270 0 OFFCURVE",
"354 0 CURVE SMOOTH",
"476 0 OFFCURVE",
"576 84 OFFCURVE",
"576 207 CURVE SMOOTH",
"576 322 OFFCURVE",
"476 414 OFFCURVE",
"354 414 CURVE SMOOTH",
"277 414 OFFCURVE",
"209 383 OFFCURVE",
"170 329 CURVE",
"354 329 LINE SMOOTH",
"354 329 OFFCURVE",
"354 329 OFFCURVE",
"362 329 CURVE SMOOTH",
"423 329 OFFCURVE",
"469 276 OFFCURVE",
"469 214 CURVE SMOOTH",
"469 161 OFFCURVE",
"423 107 OFFCURVE",
"362 107 CURVE SMOOTH",
"354 107 OFFCURVE",
"354 107 OFFCURVE",
"354 107 CURVE SMOOTH",
"163 107 LINE",
"155 107 LINE"
);
}
);
width = 606;
},
{
layerId = "5B189D8C-80C2-4E76-949E-52A655B49706";
width = 600;
}
);
unicode = 0042;
},
{
glyphname = C;
lastChange = "2021-02-10 00:34:34 +0000";
layers = (
{
layerId = "EC678C9A-BAF7-4529-BA66-EDFBF106CBF7";
paths = (
{
closed = 1;
nodes = (
"181 0 OFFCURVE",
"20 161 OFFCURVE",
"20 368 CURVE",
"20 574 OFFCURVE",
"188 735 OFFCURVE",
"380 735 CURVE",
"380 620 LINE",
"242 620 OFFCURVE",
"127 513 OFFCURVE",
"127 368 CURVE",
"127 222 OFFCURVE",
"242 115 OFFCURVE",
"380 115 CURVE",
"380 0 LINE"
);
},
{
closed = 1;
nodes = (
"518 0 OFFCURVE",
"625 54 OFFCURVE",
"686 161 CURVE",
"579 199 LINE",
"533 145 OFFCURVE",
"464 115 OFFCURVE",
"380 115 CURVE",
"380 0 LINE"
);
},
{
closed = 1;
nodes = (
"525 590 OFFCURVE",
"456 620 OFFCURVE",
"380 620 CURVE",
"380 735 LINE",
"510 735 OFFCURVE",
"617 681 OFFCURVE",
"678 582 CURVE",
"579 536 LINE"
);
}
);
width = 716;
},
{
layerId = "5B189D8C-80C2-4E76-949E-52A655B49706";
width = 600;
}
);
unicode = 0043;
},
{
glyphname = D;
lastChange = "2021-02-10 00:34:34 +0000";
layers = (
{
layerId = "EC678C9A-BAF7-4529-BA66-EDFBF106CBF7";
paths = (
{
closed = 1;
nodes = (
"60 735 LINE",
"60 0 LINE",
"167 0 LINE",
"167 107 LINE",
"167 628 LINE",
"167 735 LINE"
);
},
{
closed = 1;
nodes = (
"91 628 LINE",
"167 628 LINE",
"320 628 LINE",
"320 735 LINE",
"91 735 LINE"
);
},
{
closed = 1;
nodes = (
"664 160 OFFCURVE",
"520 0 OFFCURVE",
"320 0 CURVE",
"320 107 LINE",
"320 735 LINE",
"511 735 OFFCURVE",
"664 574 OFFCURVE",
"664 368 CURVE"
);
},
{
closed = 1;
nodes = (
"549 527 OFFCURVE",
"465 620 OFFCURVE",
"344 628 CURVE",
"336 628 OFFCURVE",
"327 628 OFFCURVE",
"327 628 CURVE",
"320 628 LINE",
"320 107 LINE",
"327 107 OFFCURVE",
"336 107 OFFCURVE",
"344 107 CURVE",
"465 115 OFFCURVE",
"549 215 OFFCURVE",
"549 375 CURVE"
);
},
{
closed = 1;
nodes = (
"167 107 LINE",
"167 107 LINE",
"167 628 LINE",
"167 628 LINE"
);
},
{
closed = 1;
nodes = (
"60 0 LINE",
"320 0 LINE",
"320 107 LINE",
"60 107 LINE"
);
}
);
width = 704;
},
{
layerId = "5B189D8C-80C2-4E76-949E-52A655B49706";
width = 600;
}
);
unicode = 0044;
},
{
glyphname = E;
lastChange = "2021-02-10 00:34:34 +0000";
layers = (
{
layerId = "EC678C9A-BAF7-4529-BA66-EDFBF106CBF7";
paths = (
{
closed = 1;
nodes = (
"60 735 LINE",
"60 0 LINE",
"168 0 LINE",
"168 735 LINE"
);
},
{
closed = 1;
nodes = (
"160 628 LINE",
"497 628 LINE",
"497 735 LINE",
"160 735 LINE"
);
},
{
closed = 1;
nodes = (
"160 0 LINE",
"497 0 LINE",
"497 108 LINE",
"160 108 LINE"
);
},
{
closed = 1;
nodes = (
"160 314 LINE",
"473 314 LINE",
"473 421 LINE",
"160 421 LINE"
);
}
);
width = 567;
},
{
layerId = "5B189D8C-80C2-4E76-949E-52A655B49706";
width = 600;
}
);
unicode = 0045;
},
{
glyphname = F;
lastChange = "2021-02-10 00:34:34 +0000";
layers = (
{
layerId = "EC678C9A-BAF7-4529-BA66-EDFBF106CBF7";
paths = (
{
closed = 1;
nodes = (
"147 0 LINE",
"40 0 LINE",
"40 735 LINE",
"147 735 LINE"
);
},
{
closed = 1;
nodes = (
"523 735 LINE",
"523 628 LINE",
"132 628 LINE",
"132 735 LINE"
);
},
{
closed = 1;
nodes = (
"477 413 LINE",
"477 314 LINE",
"132 314 LINE",
"132 413 LINE"
);
}
);
width = 563;
},
{
layerId = "5B189D8C-80C2-4E76-949E-52A655B49706";
width = 600;
}
);
unicode = 0046;
},
{
glyphname = G;
lastChange = "2021-02-10 00:34:34 +0000";
layers = (
{
layerId = "EC678C9A-BAF7-4529-BA66-EDFBF106CBF7";
paths = (
{
closed = 1;
nodes = (
"744 368 OFFCURVE",
"744 368 OFFCURVE",
"744 368 CURVE",
"744 130 OFFCURVE",
"599 0 OFFCURVE",
"392 0 CURVE",
"675 261 LINE",
"721 368 LINE",
"721 368 LINE",
"744 368 LINE",
"744 368 LINE"
);
},
{
closed = 1;
nodes = (
"721 368 LINE",
"721 268 LINE",
"621 268 LINE",
"545 268 LINE",
"392 268 LINE",
"392 344 LINE",
"392 368 LINE"
);
},
{
closed = 1;
nodes = (
"194 0 OFFCURVE",
"40 161 OFFCURVE",
"40 368 CURVE",
"40 574 OFFCURVE",
"201 735 OFFCURVE",
"392 735 CURVE",
"392 620 LINE",
"254 620 OFFCURVE",
"147 513 OFFCURVE",
"147 368 CURVE",
"147 222 OFFCURVE",
"254 114 OFFCURVE",
"392 114 CURVE",
"392 0 LINE"
);
},
{
closed = 1;
nodes = (
"744 130 OFFCURVE",
"599 0 OFFCURVE",
"392 0 CURVE",
"392 114 LINE",
"500 114 OFFCURVE",
"591 168 OFFCURVE",
"621 268 CURVE",
"545 268 LINE",
"392 268 LINE",
"392 344 LINE",
"392 344 LINE",
"392 368 LINE",
"422 368 LINE",
"645 368 LINE",
"645 368 LINE",
"652 368 LINE",
"721 368 LINE",
"721 368 LINE",
"744 368 LINE",
"744 368 LINE",
"744 368 LINE",
"744 368 LINE"
);
},
{
closed = 1;
nodes = (
"637 674 OFFCURVE",
"522 735 OFFCURVE",
"392 735 CURVE",
"392 620 LINE",
"476 620 OFFCURVE",
"553 581 OFFCURVE",
"607 520 CURVE",
"699 567 LINE"
);
}
);
width = 784;
},
{
layerId = "5B189D8C-80C2-4E76-949E-52A655B49706";
width = 600;
}
);
unicode = 0047;
},
{
glyphname = H;
lastChange = "2021-02-10 00:34:34 +0000";
layers = (
{
layerId = "EC678C9A-BAF7-4529-BA66-EDFBF106CBF7";
paths = (
{
closed = 1;
nodes = (
"517 735 LINE",
"517 0 LINE",
"624 0 LINE",
"624 735 LINE"
);
},
{
closed = 1;
nodes = (
"157 735 LINE",
"157 0 LINE",
"50 0 LINE",
"50 735 LINE"
);
},
{
closed = 1;
nodes = (
"517 413 LINE",
"517 306 LINE",
"96 306 LINE",
"96 413 LINE"
);
}
);
width = 694;
},
{
layerId = "5B189D8C-80C2-4E76-949E-52A655B49706";
width = 600;
}
);
unicode = 0048;
},
{
glyphname = I;
lastChange = "2021-02-10 00:34:34 +0000";
layers = (
{
layerId = "EC678C9A-BAF7-4529-BA66-EDFBF106CBF7";
paths = (
{
closed = 1;
nodes = (
"159 735 LINE",
"159 0 LINE",
"50 0 LINE",
"50 735 LINE"
);
}
);
width = 229;
},
{
layerId = "5B189D8C-80C2-4E76-949E-52A655B49706";
width = 600;
}
);
unicode = 0049;
},
{
glyphname = J;
lastChange = "2021-02-10 00:34:34 +0000";
layers = (
{
layerId = "EC678C9A-BAF7-4529-BA66-EDFBF106CBF7";
paths = (
{
closed = 1;
nodes = (
"415 735 LINE",
"415 261 LINE",
"522 261 LINE",
"522 735 LINE"
);
},
{
closed = 1;
nodes = (
"78 46 OFFCURVE",
"154 0 OFFCURVE",
"255 0 CURVE SMOOTH",
"408 0 OFFCURVE",
"522 114 OFFCURVE",
"522 261 CURVE",
"415 261 LINE",
"408 191 OFFCURVE",
"362 99 OFFCURVE",
"262 99 CURVE SMOOTH",
"185 99 OFFCURVE",
"147 130 OFFCURVE",
"124 160 CURVE",
"40 107 LINE"
);
}
);
width = 562;
},
{
layerId = "5B189D8C-80C2-4E76-949E-52A655B49706";
width = 600;
}
);
unicode = 004A;
},
{
glyphname = K;
lastChange = "2021-02-10 00:34:34 +0000";
layers = (
{
layerId = "EC678C9A-BAF7-4529-BA66-EDFBF106CBF7";
paths = (
{
closed = 1;
nodes = (
"150 735 LINE",
"150 0 LINE",
"40 0 LINE",
"40 735 LINE"
);
},
{
closed = 1;
nodes = (
"611 735 LINE",
"126 172 LINE",
"63 258 LINE",
"462 735 LINE"
);
},
{
closed = 1;
nodes = (
"197 321 LINE",
"291 383 LINE",
"634 0 LINE",
"486 0 LINE"
);
}
);
width = 664;
},
{
layerId = "5B189D8C-80C2-4E76-949E-52A655B49706";
width = 600;
}
);
unicode = 004B;
},
{
glyphname = L;
lastChange = "2021-02-10 00:34:34 +0000";
layers = (
{
layerId = "EC678C9A-BAF7-4529-BA66-EDFBF106CBF7";
paths = (
{
closed = 1;
nodes = (
"147 735 LINE",
"147 8 LINE",
"40 8 LINE",
"40 735 LINE"
);
},
{
closed = 1;
nodes = (
"507 107 LINE",
"507 0 LINE",
"40 0 LINE",
"40 107 LINE"
);
}
);
width = 527;
},
{
layerId = "5B189D8C-80C2-4E76-949E-52A655B49706";
width = 600;
}
);
unicode = 004C;
},
{
glyphname = M;
lastChange = "2021-02-10 00:34:34 +0000";
layers = (
{
layerId = "EC678C9A-BAF7-4529-BA66-EDFBF106CBF7";
paths = (
{
closed = 1;
nodes = (
"60 0 LINE",
"177 0 LINE",
"177 735 LINE",
"60 735 LINE"
);
},
{
closed = 1;
nodes = (
"702 735 LINE",
"702 0 LINE",
"811 0 LINE",
"811 735 LINE"
);
},
{
closed = 1;
nodes = (
"91 735 LINE",
"373 125 LINE",
"373 125 LINE",
"389 87 LINE",
"404 47 LINE",
"404 47 LINE",
"467 47 LINE",
"467 47 LINE",
"787 735 LINE",
"655 735 LINE",
"436 266 LINE",
"224 735 LINE"
);
}
);
width = 871;
},
{
layerId = "5B189D8C-80C2-4E76-949E-52A655B49706";
width = 600;
}
);
unicode = 004D;
},
{
glyphname = N;
lastChange = "2021-02-10 00:34:34 +0000";
layers = (
{
layerId = "EC678C9A-BAF7-4529-BA66-EDFBF106CBF7";
paths = (
{
closed = 1;
nodes = (
"170 735 LINE",
"170 0 LINE",
"60 0 LINE",
"60 735 LINE"
);
},
{
closed = 1;
nodes = (
"685 0 LINE",
"576 0 LINE",
"576 735 LINE",
"685 735 LINE"
);
},
{
closed = 1;
nodes = (
"185 735 LINE",
"685 0 LINE",
"560 0 LINE",
"60 735 LINE"
);
}
);
width = 745;
},
{
layerId = "5B189D8C-80C2-4E76-949E-52A655B49706";
width = 600;
}
);
unicode = 004E;
},
{
glyphname = O;
lastChange = "2021-02-10 00:34:34 +0000";
layers = (
{
layerId = "EC678C9A-BAF7-4529-BA66-EDFBF106CBF7";
paths = (
{
closed = 1;
nodes = (
"30 161 OFFCURVE",
"191 0 OFFCURVE",
"390 0 CURVE",
"390 735 LINE",
"199 735 OFFCURVE",
"30 574 OFFCURVE",
"30 368 CURVE"
);
},
{
closed = 1;
nodes = (
"758 161 OFFCURVE",
"597 0 OFFCURVE",
"390 0 CURVE",
"390 735 LINE",
"589 735 OFFCURVE",
"758 574 OFFCURVE",
"758 368 CURVE"
);
},
{
closed = 1;
nodes = (
"137 513 OFFCURVE",
"252 620 OFFCURVE",
"390 620 CURVE",
"390 115 LINE",
"252 115 OFFCURVE",
"137 222 OFFCURVE",
"137 368 CURVE"
);
},
{
closed = 1;
nodes = (
"643 513 OFFCURVE",
"527 620 OFFCURVE",
"390 620 CURVE",
"390 115 LINE",
"536 115 OFFCURVE",
"643 222 OFFCURVE",
"643 368 CURVE SMOOTH"
);
}
);
width = 788;
},
{
layerId = "5B189D8C-80C2-4E76-949E-52A655B49706";
width = 600;
}
);
unicode = 004F;
},
{
glyphname = P;
lastChange = "2021-02-10 00:34:26 +0000";
layers = (
{
layerId = "EC678C9A-BAF7-4529-BA66-EDFBF106CBF7";
paths = (
{
closed = 1;
nodes = (
"167 620 LINE",
"167 352 LINE",
"167 0 LINE",
"60 0 LINE",
"60 735 LINE",
"167 735 LINE"
);
},
{
closed = 1;
nodes = (
"167 352 LINE",
"343 352 LINE",
"343 237 LINE",
"91 237 LINE",
"91 352 LINE"
);
},
{
closed = 1;
nodes = (
"293 735 LINE",
"323 735 LINE",
"323 735 OFFCURVE",
"351 735 OFFCURVE",
"351 735 CURVE",
"489 735 OFFCURVE",
"604 620 OFFCURVE",
"604 482 CURVE",
"604 352 OFFCURVE",
"489 237 OFFCURVE",
"351 237 CURVE",
"213 237 OFFCURVE",
"106 337 OFFCURVE",
"106 482 CURVE",
"106 536 OFFCURVE",
"121 582 OFFCURVE",
"144 620 CURVE",
"91 620 LINE",
"91 735 LINE"
);
},
{
closed = 1;
nodes = (
"343 352 LINE SMOOTH",
"343 352 OFFCURVE",
"343 352 OFFCURVE",
"343 352 CURVE SMOOTH",
"420 352 OFFCURVE",
"481 413 OFFCURVE",
"481 490 CURVE SMOOTH",
"481 567 OFFCURVE",
"420 628 OFFCURVE",
"343 628 CURVE SMOOTH",
"343 628 LINE",
"167 628 LINE",
"167 620 LINE",
"167 352 LINE"
);
}
);
width = 664;
},
{
layerId = "5B189D8C-80C2-4E76-949E-52A655B49706";
width = 600;
}
);
unicode = 0050;
},
{
glyphname = Q;
lastChange = "2021-02-10 00:34:27 +0000";
layers = (
{
layerId = "EC678C9A-BAF7-4529-BA66-EDFBF106CBF7";
paths = (
{
closed = 1;
nodes = (
"40 162 OFFCURVE",
"203 0 OFFCURVE",
"404 0 CURVE",
"404 735 LINE",
"211 735 OFFCURVE",
"40 580 OFFCURVE",
"40 371 CURVE"
);
},
{
closed = 1;
nodes = (
"776 162 OFFCURVE",
"613 0 OFFCURVE",
"404 0 CURVE",
"404 735 LINE",
"605 735 OFFCURVE",
"776 580 OFFCURVE",
"776 371 CURVE"
);
},
{
closed = 1;
nodes = (
"149 518 OFFCURVE",
"265 627 OFFCURVE",
"404 627 CURVE",
"404 116 LINE",
"265 116 OFFCURVE",
"149 224 OFFCURVE",
"149 371 CURVE"
);
},
{
closed = 1;
nodes = (
"659 518 OFFCURVE",
"543 627 OFFCURVE",
"404 627 CURVE",
"404 116 LINE",
"551 116 OFFCURVE",
"659 224 OFFCURVE",
"659 371 CURVE"
);
},
{
closed = 1;
nodes = (
"776 70 LINE",
"706 -23 LINE",
"404 186 LINE",
"474 279 LINE"
);
}
);
width = 816;
},
{
layerId = "5B189D8C-80C2-4E76-949E-52A655B49706";
width = 600;
}
);
unicode = 0051;
},
{
glyphname = R;
lastChange = "2021-02-10 00:34:34 +0000";
layers = (
{
layerId = "EC678C9A-BAF7-4529-BA66-EDFBF106CBF7";
paths = (
{
closed = 1;
nodes = (
"40 735 LINE",
"40 0 LINE",
"147 0 LINE",
"147 621 LINE",
"147 659 LINE",
"147 735 LINE"
);
},
{
closed = 1;
nodes = (
"71 253 LINE",
"323 253 LINE",
"323 368 LINE",
"71 368 LINE"
);
},
{
closed = 1;
nodes = (
"454 0 LINE",
"584 0 LINE",
"408 307 LINE",
"285 307 LINE"
);
},
{
closed = 1;
nodes = (
"323 628 LINE",
"323 735 LINE",
"255 735 OFFCURVE",
"193 705 OFFCURVE",
"147 659 CURVE",
"147 628 LINE"
);
},
{
closed = 1;
nodes = (
"71 735 LINE",
"71 621 LINE",
"117 621 LINE",
"101 582 OFFCURVE",
"86 544 OFFCURVE",
"86 490 CURVE",
"86 345 OFFCURVE",
"193 253 OFFCURVE",
"331 253 CURVE",
"461 253 OFFCURVE",
"569 360 OFFCURVE",
"569 490 CURVE",
"569 628 OFFCURVE",
"461 735 OFFCURVE",
"331 735 CURVE",
"323 735 OFFCURVE",
"323 735 OFFCURVE",
"323 735 CURVE",
"323 735 LINE"
);
},
{
closed = 1;
nodes = (
"393 628 OFFCURVE",
"446 567 OFFCURVE",
"446 498 CURVE SMOOTH",
"446 429 OFFCURVE",
"393 368 OFFCURVE",
"323 368 CURVE SMOOTH",
"323 368 OFFCURVE",
"316 368 OFFCURVE",
"316 368 CURVE SMOOTH",
"147 368 LINE",
"147 621 LINE",
"147 628 LINE",
"147 659 LINE",
"193 705 OFFCURVE",
"255 735 OFFCURVE",
"323 735 CURVE",
"323 628 LINE",
"323 628 LINE SMOOTH"
);
}
);
width = 634;
},
{
layerId = "5B189D8C-80C2-4E76-949E-52A655B49706";
width = 600;
}
);
unicode = 0052;
},
{
glyphname = S;
lastChange = "2021-02-10 00:34:34 +0000";
layers = (
{
layerId = "EC678C9A-BAF7-4529-BA66-EDFBF106CBF7";
paths = (
{
closed = 1;
nodes = (
"295 735 OFFCURVE",
"284 734 OFFCURVE",
"274 734 CURVE SMOOTH",
"199 727 OFFCURVE",
"143 692 OFFCURVE",
"114 662 CURVE SMOOTH",
"86 632 OFFCURVE",
"60 586 OFFCURVE",
"61 540 CURVE SMOOTH",
"62 494 OFFCURVE",
"69 472 OFFCURVE",
"96 434 CURVE SMOOTH",
"121 395 OFFCURVE",
"179 364 OFFCURVE",
"210 351 CURVE SMOOTH",
"242 339 OFFCURVE",
"282 326 OFFCURVE",
"318 314 CURVE SMOOTH",
"355 301 OFFCURVE",
"396 279 OFFCURVE",
"417 248 CURVE SMOOTH",
"439 217 OFFCURVE",
"439 187 OFFCURVE",
"418 158 CURVE SMOOTH",
"398 131 OFFCURVE",
"365 114 OFFCURVE",
"329 109 CURVE SMOOTH",
"318 108 OFFCURVE",
"305 106 OFFCURVE",
"293 106 CURVE SMOOTH",
"262 106 OFFCURVE",
"228 112 OFFCURVE",
"203 126 CURVE SMOOTH",
"165 147 OFFCURVE",
"135 194 OFFCURVE",
"135 194 CURVE",
"135 194 OFFCURVE",
"78 163 OFFCURVE",
"40 142 CURVE",
"76 88 OFFCURVE",
"107 52 OFFCURVE",
"152 29 CURVE SMOOTH",
"197 7 OFFCURVE",
"244 1 OFFCURVE",
"273 1 CURVE SMOOTH",
"280 0 OFFCURVE",
"287 0 OFFCURVE",
"295 0 CURVE SMOOTH",
"322 0 OFFCURVE",
"354 3 OFFCURVE",
"394 15 CURVE SMOOTH",
"445 30 OFFCURVE",
"483 62 OFFCURVE",
"508 96 CURVE SMOOTH",
"533 129 OFFCURVE",
"548 182 OFFCURVE",
"541 234 CURVE SMOOTH",
"533 286 OFFCURVE",
"506 317 OFFCURVE",
"481 342 CURVE SMOOTH",
"456 366 OFFCURVE",
"415 386 OFFCURVE",
"393 396 CURVE SMOOTH",
"371 407 OFFCURVE",
"309 428 OFFCURVE",
"276 440 CURVE SMOOTH",
"259 449 OFFCURVE",
"188 468 OFFCURVE",
"175 515 CURVE SMOOTH",
"162 561 OFFCURVE",
"188 596 OFFCURVE",
"212 611 CURVE SMOOTH",
"234 625 OFFCURVE",
"263 633 OFFCURVE",
"296 633 CURVE SMOOTH",
"298 633 OFFCURVE",
"301 633 OFFCURVE",
"303 633 CURVE SMOOTH",
"340 631 OFFCURVE",
"357 620 OFFCURVE",
"380 606 CURVE SMOOTH",
"402 594 OFFCURVE",
"429 550 OFFCURVE",
"429 550 CURVE",
"525 593 LINE",
"525 593 OFFCURVE",
"525 593 OFFCURVE",
"512 619 CURVE SMOOTH",
"479 671 OFFCURVE",
"449 692 OFFCURVE",
"422 707 CURVE SMOOTH",
"399 720 OFFCURVE",
"361 735 OFFCURVE",
"304 735 CURVE"
);
}
);
width = 613;
},
{
layerId = "5B189D8C-80C2-4E76-949E-52A655B49706";
width = 600;
}
);
unicode = 0053;
},
{
glyphname = T;
lastChange = "2021-02-10 00:34:34 +0000";
layers = (
{
layerId = "EC678C9A-BAF7-4529-BA66-EDFBF106CBF7";
paths = (
{
closed = 1;
nodes = (
"351 0 LINE",
"244 0 LINE",
"244 735 LINE",
"351 735 LINE"
);
},
{
closed = 1;
nodes = (
"573 735 LINE",
"573 628 LINE",
"30 628 LINE",
"30 735 LINE"
);
}
);
width = 623;
},
{
layerId = "5B189D8C-80C2-4E76-949E-52A655B49706";
width = 600;
}
);
unicode = 0054;
},
{
glyphname = U;
lastChange = "2021-02-10 00:34:34 +0000";
layers = (
{
layerId = "EC678C9A-BAF7-4529-BA66-EDFBF106CBF7";
paths = (
{
closed = 1;
nodes = (
"543 735 LINE",
"543 459 LINE",
"543 291 LINE",
"543 291 LINE",
"543 237 LINE",
"650 237 LINE",
"650 237 LINE",
"650 735 LINE"
);
},
{
closed = 1;
nodes = (
"167 735 LINE",
"167 704 LINE",
"167 459 LINE",
"167 283 LINE",
"167 237 LINE",
"60 237 LINE",
"60 735 LINE"
);
},
{
closed = 1;
nodes = (
"167 704 LINE",
"167 459 LINE",
"167 283 LINE",
"167 283 LINE",
"167 153 OFFCURVE",
"252 107 OFFCURVE",
"351 107 CURVE",
"458 107 OFFCURVE",
"535 153 OFFCURVE",
"543 283 CURVE",
"543 283 OFFCURVE",
"543 291 OFFCURVE",
"543 291 CURVE",
"543 283 LINE",
"543 237 LINE",
"650 237 LINE",
"642 100 OFFCURVE",
"512 0 OFFCURVE",
"351 0 CURVE",
"191 0 OFFCURVE",
"60 107 OFFCURVE",
"60 260 CURVE",
"60 345 OFFCURVE",
"99 413 OFFCURVE",
"167 459 CURVE",
"167 704 LINE"
);
}
);
width = 720;
},
{
layerId = "5B189D8C-80C2-4E76-949E-52A655B49706";
width = 600;
}
);
unicode = 0055;
},
{
glyphname = V;
lastChange = "2021-02-10 00:34:34 +0000";
layers = (
{
layerId = "EC678C9A-BAF7-4529-BA66-EDFBF106CBF7";
paths = (
{
closed = 1;
nodes = (
"163 735 LINE",
"429 0 LINE",
"304 0 LINE",
"30 735 LINE"
);
},
{
closed = 1;
nodes = (
"452 0 LINE",
"319 0 LINE",
"593 735 LINE",
"718 735 LINE"
);
}
);
width = 788;
},
{
layerId = "5B189D8C-80C2-4E76-949E-52A655B49706";
width = 600;
}
);
unicode = 0056;
},
{
glyphname = W;
lastChange = "2021-02-10 00:34:34 +0000";
layers = (
{
layerId = "EC678C9A-BAF7-4529-BA66-EDFBF106CBF7";
paths = (
{
closed = 1;
nodes = (
"461 735 LINE",
"241 0 LINE",
"359 0 LINE",
"586 735 LINE"
);
},
{
closed = 1;
nodes = (
"687 0 LINE",
"813 0 LINE",
"586 735 LINE",
"469 735 LINE"
);
},
{
closed = 1;
nodes = (
"225 0 LINE",
"351 0 LINE",
"156 735 LINE",
"30 735 LINE"
);
},
{
closed = 1;
nodes = (
"898 735 LINE",
"703 0 LINE",
"828 0 LINE",
"1023 735 LINE"
);
}
);
width = 1073;
},
{
layerId = "5B189D8C-80C2-4E76-949E-52A655B49706";
width = 600;
}
);
unicode = 0057;
},
{
glyphname = X;
lastChange = "2021-02-10 00:34:34 +0000";
layers = (
{
layerId = "EC678C9A-BAF7-4529-BA66-EDFBF106CBF7";
paths = (
{
closed = 1;
nodes = (
"171 735 LINE",
"672 0 LINE",
"539 0 LINE",
"30 735 LINE"
);
},
{
closed = 1;
nodes = (
"171 0 LINE",
"30 0 LINE",
"539 735 LINE",
"672 735 LINE"
);
}
);
width = 702;
},
{
layerId = "5B189D8C-80C2-4E76-949E-52A655B49706";
width = 600;
}
);
unicode = 0058;
},
{
glyphname = Y;
lastChange = "2021-02-10 00:34:34 +0000";
layers = (
{
layerId = "EC678C9A-BAF7-4529-BA66-EDFBF106CBF7";
paths = (
{
closed = 1;
nodes = (
"397 302 LINE",
"299 363 LINE",
"535 735 LINE",
"672 735 LINE"
);
},
{
closed = 1;
nodes = (
"178 735 LINE",
"425 372 LINE",
"327 311 LINE",
"41 735 LINE"
);
},
{
closed = 1;
nodes = (
"419 0 LINE",
"310 0 LINE",
"310 337 LINE",
"419 337 LINE"
);
}
);
width = 712;
},
{
layerId = "5B189D8C-80C2-4E76-949E-52A655B49706";
width = 600;
}
);
unicode = 0059;
},
{
glyphname = Z;
lastChange = "2021-02-10 00:34:34 +0000";
layers = (
{
layerId = "EC678C9A-BAF7-4529-BA66-EDFBF106CBF7";
paths = (
{
closed = 1;
nodes = (
"431 626 LINE",
"40 110 LINE",
"194 110 LINE",
"585 626 LINE"
);
},
{
closed = 1;
nodes = (
"585 735 LINE",
"585 626 LINE",
"40 626 LINE",
"40 735 LINE"
);
},
{
closed = 1;
nodes = (
"585 110 LINE",
"585 0 LINE",
"40 0 LINE",
"40 110 LINE"
);
}
);
width = 625;
},
{
layerId = "5B189D8C-80C2-4E76-949E-52A655B49706";
width = 600;
}
);
unicode = 005A;
},
{
glyphname = a;
lastChange = "2021-02-10 01:39:01 +0000";
layers = (
{
layerId = "EC678C9A-BAF7-4529-BA66-EDFBF106CBF7";
paths = (
{
closed = 1;
nodes = (
"533 108 OFFCURVE",
"425 0 OFFCURVE",
"289 0 CURVE",
"147 0 OFFCURVE",
"40 108 OFFCURVE",
"40 244 CURVE",
"40 386 OFFCURVE",
"147 500 OFFCURVE",
"289 500 CURVE",
"425 500 OFFCURVE",
"533 386 OFFCURVE",
"533 244 CURVE"
);
},
{
closed = 1;
nodes = (
"550 494 LINE",
"550 12 LINE",
"442 12 LINE",
"442 494 LINE"
);
},
{
closed = 1;
nodes = (
"442 324 OFFCURVE",
"380 392 OFFCURVE",
"295 392 CURVE SMOOTH",
"216 392 OFFCURVE",
"153 329 OFFCURVE",
"153 244 CURVE SMOOTH",
"153 171 OFFCURVE",
"216 103 OFFCURVE",
"295 103 CURVE SMOOTH",
"380 103 OFFCURVE",
"442 176 OFFCURVE",
"442 244 CURVE SMOOTH"
);
}
);
width = 620;
},
{
layerId = "5B189D8C-80C2-4E76-949E-52A655B49706";
paths = (
{
closed = 1;
nodes = (
"536 124 OFFCURVE",
"432 0 OFFCURVE",
"288 0 CURVE",
"149 0 OFFCURVE",
"44 112 OFFCURVE",
"44 250 CURVE",
"44 388 OFFCURVE",
"149 500 OFFCURVE",
"288 500 CURVE",
"433 500 OFFCURVE",
"536 369 OFFCURVE",
"536 250 CURVE"
);
},
{
closed = 1;
nodes = (
"567 492 LINE",
"567 7 LINE",
"428 7 LINE",
"428 492 LINE"
);
},
{
closed = 1;
nodes = (
"428 179 OFFCURVE",
"374 126 OFFCURVE",
"303 126 CURVE",
"232 126 OFFCURVE",
"177 182 OFFCURVE",
"177 250 CURVE",
"177 318 OFFCURVE",
"232 374 OFFCURVE",
"303 374 CURVE",
"374 374 OFFCURVE",
"428 321 OFFCURVE",
"428 250 CURVE"
);
},
{
closed = 1;
nodes = (
"536 124 OFFCURVE",
"432 0 OFFCURVE",
"288 0 CURVE",
"149 0 OFFCURVE",
"44 112 OFFCURVE",
"44 250 CURVE",
"44 388 OFFCURVE",
"149 500 OFFCURVE",
"288 500 CURVE",
"433 500 OFFCURVE",
"536 369 OFFCURVE",
"536 250 CURVE"
);
},
{
closed = 1;
nodes = (
"567 492 LINE",
"567 7 LINE",
"428 7 LINE",
"428 492 LINE"
);
},
{
closed = 1;
nodes = (
"428 321 OFFCURVE",
"374 374 OFFCURVE",
"303 374 CURVE SMOOTH",
"232 374 OFFCURVE",
"177 318 OFFCURVE",
"177 250 CURVE SMOOTH",
"177 182 OFFCURVE",
"232 126 OFFCURVE",
"303 126 CURVE SMOOTH",
"374 126 OFFCURVE",
"428 179 OFFCURVE",
"428 250 CURVE SMOOTH"
);
}
);
width = 600;
}
);
unicode = 0061;
},
{
glyphname = b;
lastChange = "2021-02-10 01:42:14 +0000";
layers = (
{
layerId = "EC678C9A-BAF7-4529-BA66-EDFBF106CBF7";
paths = (
{
closed = 1;
nodes = (
"60 735 LINE",
"60 8 LINE",
"166 8 LINE",
"166 735 LINE"
);
},
{
closed = 1;
nodes = (
"75 114 OFFCURVE",
"182 0 OFFCURVE",
"317 0 CURVE",
"454 0 OFFCURVE",
"567 114 OFFCURVE",
"567 250 CURVE",
"567 386 OFFCURVE",
"454 500 OFFCURVE",
"317 500 CURVE",
"182 500 OFFCURVE",
"75 386 OFFCURVE",
"75 250 CURVE"
);
},
{
closed = 1;
nodes = (
"166 326 OFFCURVE",
"218 394 OFFCURVE",
"302 394 CURVE SMOOTH",
"386 394 OFFCURVE",
"454 326 OFFCURVE",
"454 250 CURVE SMOOTH",
"454 174 OFFCURVE",
"386 106 OFFCURVE",
"302 106 CURVE SMOOTH",
"218 106 OFFCURVE",
"166 174 OFFCURVE",
"166 250 CURVE SMOOTH"
);
}
);
width = 597;
},
{
layerId = "5B189D8C-80C2-4E76-949E-52A655B49706";
width = 600;
}
);
unicode = 0062;
},
{
glyphname = c;
lastChange = "2021-02-10 01:25:59 +0000";
layers = (
{
layerId = "EC678C9A-BAF7-4529-BA66-EDFBF106CBF7";
paths = (
{
closed = 1;
nodes = (
"393 0 OFFCURVE",
"476 56 OFFCURVE",
"515 138 CURVE",
"422 182 LINE",
"401 134 OFFCURVE",
"357 100 OFFCURVE",
"296 100 CURVE SMOOTH",
"211 100 OFFCURVE",
"146 166 OFFCURVE",
"146 249 CURVE SMOOTH",
"146 331 OFFCURVE",
"211 398 OFFCURVE",
"296 398 CURVE SMOOTH",
"356 398 OFFCURVE",
"400 360 OFFCURVE",
"421 312 CURVE",
"516 357 LINE",
"475 442 OFFCURVE",
"388 500 OFFCURVE",
"290 500 CURVE SMOOTH",
"155 500 OFFCURVE",
"40 388 OFFCURVE",
"40 250 CURVE SMOOTH",
"40 112 OFFCURVE",
"150 0 OFFCURVE",
"290 0 CURVE SMOOTH"
);
}
);
width = 546;
},
{
layerId = "5B189D8C-80C2-4E76-949E-52A655B49706";
paths = (
{
closed = 1;
nodes = (
"588 57 OFFCURVE",
"505 0 OFFCURVE",
"401 0 CURVE SMOOTH",
"261 0 OFFCURVE",
"151 112 OFFCURVE",
"151 250 CURVE SMOOTH",
"151 388 OFFCURVE",
"266 500 OFFCURVE",
"401 500 CURVE SMOOTH",
"499 500 OFFCURVE",
"585 442 OFFCURVE",
"627 357 CURVE",
"500 298 LINE",
"483 335 OFFCURVE",
"450 364 OFFCURVE",
"403 364 CURVE SMOOTH",
"337 364 OFFCURVE",
"287 313 OFFCURVE",
"287 250 CURVE SMOOTH",
"287 187 OFFCURVE",
"337 136 OFFCURVE",
"403 136 CURVE SMOOTH",
"450 136 OFFCURVE",
"485 163 OFFCURVE",
"501 201 CURVE",
"627 141 LINE"
);
}
);
width = 600;
}
);
unicode = 0063;
},
{
glyphname = d;
lastChange = "2021-02-10 00:34:27 +0000";
layers = (
{
layerId = "EC678C9A-BAF7-4529-BA66-EDFBF106CBF7";
paths = (
{
closed = 1;
nodes = (
"557 731 LINE",
"557 8 LINE",
"447 8 LINE",
"447 731 LINE"
);
},
{
closed = 1;
nodes = (
"538 111 OFFCURVE",
"429 0 OFFCURVE",
"291 0 CURVE",
"152 0 OFFCURVE",
"40 112 OFFCURVE",
"40 250 CURVE",
"40 388 OFFCURVE",
"152 500 OFFCURVE",
"291 500 CURVE",
"429 500 OFFCURVE",
"538 388 OFFCURVE",
"538 250 CURVE"
);
},
{
closed = 1;
nodes = (
"447 325 OFFCURVE",
"388 397 OFFCURVE",
"305 397 CURVE SMOOTH",
"220 397 OFFCURVE",
"154 331 OFFCURVE",
"154 250 CURVE SMOOTH",
"154 169 OFFCURVE",
"220 104 OFFCURVE",
"305 104 CURVE SMOOTH",
"388 104 OFFCURVE",
"447 175 OFFCURVE",
"447 250 CURVE SMOOTH"
);
}
);
width = 607;
},
{
layerId = "5B189D8C-80C2-4E76-949E-52A655B49706";
width = 600;
}
);
unicode = 0064;
},
{
glyphname = e;
lastChange = "2021-02-10 01:29:01 +0000";
layers = (
{
layerId = "EC678C9A-BAF7-4529-BA66-EDFBF106CBF7";
paths = (
{
closed = 1;
nodes = (
"81 204 LINE",
"126 204 LINE",
"209 204 LINE",
"285 204 LINE",
"391 204 LINE",
"414 204 LINE",
"459 204 LINE",
"498 204 LINE",
"498 204 LINE",
"437 296 LINE",
"391 296 LINE",
"119 296 LINE",
"81 296 LINE"
);
},
{
closed = 1;
nodes = (
"134 500 OFFCURVE",
"20 386 OFFCURVE",
"20 250 CURVE",
"20 114 OFFCURVE",
"126 0 OFFCURVE",
"263 0 CURVE",
"361 0 OFFCURVE",
"444 53 OFFCURVE",
"483 114 CURVE",
"391 160 LINE",
"366 124 OFFCURVE",
"336 99 OFFCURVE",
"263 99 CURVE",
"194 106 OFFCURVE",
"141 144 OFFCURVE",
"126 204 CURVE",
"209 204 LINE",
"285 204 LINE",
"391 204 LINE",
"414 204 LINE",
"459 204 LINE",
"498 204 LINE",
"498 204 LINE",
"498 204 LINE",
"498 204 LINE",
"527 386 OFFCURVE",
"399 500 OFFCURVE",
"263 500 CURVE"
);
},
{
closed = 1;
nodes = (
"331 402 OFFCURVE",
"376 349 OFFCURVE",
"391 296 CURVE",
"119 296 LINE",
"141 356 OFFCURVE",
"194 402 OFFCURVE",
"263 402 CURVE SMOOTH"
);
}
);
width = 532;
},
{
layerId = "5B189D8C-80C2-4E76-949E-52A655B49706";
paths = (
{
closed = 1;
nodes = (
"173 308 LINE",
"399 308 LINE",
"415 308 LINE",
"530 199 LINE",
"422 199 LINE",
"403 199 LINE",
"324 199 LINE",
"241 199 LINE",
"169 199 LINE",
"107 199 LINE",
"107 308 LINE"
);
},
{
closed = 1;
nodes = (
"173 308 LINE",
"399 308 LINE",
"415 308 LINE",
"530 199 LINE",
"422 199 LINE",
"403 199 LINE",
"324 199 LINE",
"241 199 LINE",
"169 199 LINE",
"107 199 LINE",
"107 308 LINE"
);
},
{
closed = 1;
nodes = (
"155 500 OFFCURVE",
"41 388 OFFCURVE",
"41 250 CURVE",
"41 112 OFFCURVE",
"150 0 OFFCURVE",
"291 0 CURVE",
"392 0 OFFCURVE",
"474 50 OFFCURVE",
"512 110 CURVE",
"398 164 LINE",
"378 143 OFFCURVE",
"351 129 OFFCURVE",
"322 122 CURVE",
"311 120 OFFCURVE",
"301 119 OFFCURVE",
"290 118 CURVE",
"234 119 OFFCURVE",
"189 152 OFFCURVE",
"169 199 CURVE",
"241 199 LINE",
"324 199 LINE",
"403 199 LINE",
"422 199 LINE",
"530 199 LINE",
"559 387 OFFCURVE",
"426 500 OFFCURVE",
"291 500 CURVE"
);
},
{
closed = 1;
nodes = (
"173 308 LINE",
"193 352 OFFCURVE",
"238 381 OFFCURVE",
"291 381 CURVE SMOOTH",
"342 381 OFFCURVE",
"380 349 OFFCURVE",
"399 308 CURVE"
);
}
);
width = 600;
}
);
unicode = 0065;
},
{
glyphname = f;
lastChange = "2021-02-10 00:34:34 +0000";
layers = (
{
layerId = "EC678C9A-BAF7-4529-BA66-EDFBF106CBF7";
paths = (
{
closed = 1;
nodes = (
"402 500 LINE",
"402 406 LINE",
"50 406 LINE",
"50 500 LINE"
);
},
{
closed = 1;
nodes = (
"160 735 OFFCURVE",
"143 601 OFFCURVE",
"143 515 CURVE",
"255 515 LINE",
"255 578 OFFCURVE",
"255 632 OFFCURVE",
"340 632 CURVE",
"402 632 LINE",
"402 735 LINE",
"364 735 OFFCURVE",
"347 735 OFFCURVE",
"324 735 CURVE",
"324 735 LINE"
);
},
{
closed = 1;
nodes = (
"255 515 LINE",
"255 0 LINE",
"143 0 LINE",
"143 515 LINE"
);
}
);
width = 432;
},
{
layerId = "5B189D8C-80C2-4E76-949E-52A655B49706";
width = 600;
}
);
unicode = 0066;
},
{
glyphname = g;
lastChange = "2021-02-10 01:41:53 +0000";
layers = (
{
anchors = (
{
name = bottom;
position = "{288, -200}";
},
{
name = top;
position = "{288, 500}";
}
);
layerId = "EC678C9A-BAF7-4529-BA66-EDFBF106CBF7";
paths = (
{
closed = 1;
nodes = (
"547 492 LINE",
"547 31 LINE",
"437 31 LINE",
"437 492 LINE"
);
},
{
closed = 1;
nodes = (
"103 -184 OFFCURVE",
"179 -230 OFFCURVE",
"278 -230 CURVE",
"428 -230 OFFCURVE",
"547 -116 OFFCURVE",
"547 31 CURVE",
"437 31 LINE",
"436 -36 OFFCURVE",
"382 -132 OFFCURVE",
"285 -132 CURVE",
"209 -132 OFFCURVE",
"169 -94 OFFCURVE",
"146 -67 CURVE",
"60 -122 LINE"
);
},
{
closed = 1;
nodes = (
"527 112 OFFCURVE",
"420 0 OFFCURVE",
"281 0 CURVE",
"142 0 OFFCURVE",
"30 112 OFFCURVE",
"30 250 CURVE",
"30 388 OFFCURVE",
"142 500 OFFCURVE",
"281 500 CURVE",
"420 500 OFFCURVE",
"527 389 OFFCURVE",
"527 250 CURVE"
);
},
{
closed = 1;
nodes = (
"437 325 OFFCURVE",
"378 396 OFFCURVE",
"294 396 CURVE SMOOTH",
"210 396 OFFCURVE",
"145 331 OFFCURVE",
"145 250 CURVE SMOOTH",
"145 170 OFFCURVE",
"210 105 OFFCURVE",
"294 105 CURVE SMOOTH",
"378 105 OFFCURVE",
"437 175 OFFCURVE",
"437 250 CURVE SMOOTH"
);
}
);
width = 597;
},
{
layerId = "5B189D8C-80C2-4E76-949E-52A655B49706";
width = 600;
}
);
unicode = 0067;
},
{
glyphname = h;
lastChange = "2021-02-10 00:34:34 +0000";
layers = (
{
layerId = "EC678C9A-BAF7-4529-BA66-EDFBF106CBF7";
paths = (
{
closed = 1;
nodes = (
"503 312 LINE",
"503 0 LINE",
"394 0 LINE",
"394 305 LINE"
);
},
{
closed = 1;
nodes = (
"440 500 OFFCURVE",
"503 413 OFFCURVE",
"503 312 CURVE",
"394 288 LINE",
"394 327 OFFCURVE",
"371 393 OFFCURVE",
"277 393 CURVE",
"190 393 OFFCURVE",
"159 327 OFFCURVE",
"159 272 CURVE",
"104 359 LINE",
"120 437 OFFCURVE",
"167 500 OFFCURVE",
"308 500 CURVE"
);
},
{
closed = 1;
nodes = (
"159 735 LINE",
"159 0 LINE",
"50 0 LINE",
"50 735 LINE"
);
}
);
width = 553;
},
{
layerId = "5B189D8C-80C2-4E76-949E-52A655B49706";
width = 600;
}
);
unicode = 0068;
},
{
glyphname = i;
lastChange = "2021-02-10 00:34:34 +0000";
layers = (
{
layerId = "EC678C9A-BAF7-4529-BA66-EDFBF106CBF7";
paths = (
{
closed = 1;
nodes = (
"164 714 OFFCURVE",
"195 684 OFFCURVE",
"195 647 CURVE",
"195 611 OFFCURVE",
"164 581 OFFCURVE",
"128 581 CURVE",
"91 581 OFFCURVE",
"60 611 OFFCURVE",
"60 647 CURVE",
"60 684 OFFCURVE",
"91 714 OFFCURVE",
"128 714 CURVE"
);
},
{
closed = 1;
nodes = (
"184 500 LINE",
"184 0 LINE",
"71 0 LINE",
"71 500 LINE"
);
}
);
width = 235;
},
{
layerId = "5B189D8C-80C2-4E76-949E-52A655B49706";
width = 600;
}
);
unicode = 0069;
},
{
glyphname = j;
lastChange = "2021-02-10 00:34:34 +0000";
layers = (
{
layerId = "EC678C9A-BAF7-4529-BA66-EDFBF106CBF7";
paths = (
{
closed = 1;
nodes = (
"298 735 OFFCURVE",
"331 704 OFFCURVE",
"331 671 CURVE",
"331 631 OFFCURVE",
"298 599 OFFCURVE",
"267 599 CURVE",
"227 599 OFFCURVE",
"194 631 OFFCURVE",
"194 671 CURVE",
"194 704 OFFCURVE",
"227 735 OFFCURVE",
"267 735 CURVE"
);
},
{
closed = 1;
nodes = (
"275 -230 OFFCURVE",
"323 -121 OFFCURVE",
"323 0 CURVE",
"212 0 LINE",
"212 -39 OFFCURVE",
"203 -128 OFFCURVE",
"107 -128 CURVE",
"88 -127 OFFCURVE",
"83 -121 OFFCURVE",
"50 -119 CURVE",
"50 -223 LINE",
"91 -230 OFFCURVE",
"99 -230 OFFCURVE",
"146 -230 CURVE"
);
},
{
closed = 1;
nodes = (
"323 500 LINE",
"323 0 LINE",
"212 0 LINE",
"212 500 LINE"
);
}
);
width = 381;
},
{
layerId = "5B189D8C-80C2-4E76-949E-52A655B49706";
width = 600;
}
);
unicode = 006A;
},
{
glyphname = k;
lastChange = "2021-02-10 00:34:34 +0000";
layers = (
{
layerId = "EC678C9A-BAF7-4529-BA66-EDFBF106CBF7";
paths = (
{
closed = 1;
nodes = (
"503 500 LINE",
"158 101 LINE",
"93 182 LINE",
"354 500 LINE"
);
},
{
closed = 1;
nodes = (
"187 271 LINE",
"270 339 LINE",
"523 0 LINE",
"383 0 LINE"
);
},
{
closed = 1;
nodes = (
"165 735 LINE",
"165 1 LINE",
"50 1 LINE",
"50 735 LINE"
);
}
);
width = 523;
},
{
layerId = "5B189D8C-80C2-4E76-949E-52A655B49706";
width = 600;
}
);
unicode = 006B;
},
{
glyphname = l;
lastChange = "2021-02-10 00:34:34 +0000";
layers = (
{
layerId = "EC678C9A-BAF7-4529-BA66-EDFBF106CBF7";
paths = (
{
closed = 1;
nodes = (
"175 735 LINE",
"175 152 LINE",
"70 152 LINE",
"70 735 LINE"
);
},
{
closed = 1;
nodes = (
"70 20 OFFCURVE",
"118 -14 OFFCURVE",
"242 6 CURVE",
"242 81 LINE",
"186 81 OFFCURVE",
"175 96 OFFCURVE",
"175 152 CURVE",
"70 152 LINE"
);
},
{
closed = 1;
nodes = (
"175 735 LINE",
"175 152 LINE",
"70 152 LINE",
"70 735 LINE"
);
},
{
closed = 1;
nodes = (
"70 20 OFFCURVE",
"118 -14 OFFCURVE",
"242 6 CURVE",
"242 81 LINE",
"186 81 OFFCURVE",
"175 96 OFFCURVE",
"175 152 CURVE",
"70 152 LINE"
);
}
);
width = 252;
},
{
layerId = "5B189D8C-80C2-4E76-949E-52A655B49706";
width = 600;
}
);
unicode = 006C;
},
{
glyphname = m;
lastChange = "2021-02-10 01:34:07 +0000";
layers = (
{
layerId = "EC678C9A-BAF7-4529-BA66-EDFBF106CBF7";
paths = (
{
closed = 1;
nodes = (
"466 307 LINE",
"466 0 LINE",
"357 0 LINE",
"357 292 LINE"
);
},
{
closed = 1;
nodes = (
"781 307 LINE",
"781 0 LINE",
"666 0 LINE",
"666 292 LINE"
);
},
{
closed = 1;
nodes = (
"403 500 OFFCURVE",
"466 400 OFFCURVE",
"466 300 CURVE",
"357 284 LINE",
"357 323 OFFCURVE",
"342 393 OFFCURVE",
"258 393 CURVE",
"174 393 OFFCURVE",
"158 330 OFFCURVE",
"158 277 CURVE",
"104 346 LINE",
"119 423 OFFCURVE",
"158 500 OFFCURVE",
"281 500 CURVE"
);
},
{
closed = 1;
nodes = (
"720 500 OFFCURVE",
"781 400 OFFCURVE",
"781 300 CURVE",
"666 284 LINE",
"666 323 OFFCURVE",
"650 393 OFFCURVE",
"565 393 CURVE",
"489 393 OFFCURVE",
"466 330 OFFCURVE",
"466 277 CURVE",
"412 346 LINE",
"427 423 OFFCURVE",
"473 500 OFFCURVE",
"596 500 CURVE"
);
},
{
closed = 1;
nodes = (
"158 485 LINE",
"158 0 LINE",
"50 0 LINE",
"50 485 LINE"
);
}
);
width = 831;
},
{
layerId = "5B189D8C-80C2-4E76-949E-52A655B49706";
width = 600;
}
);
unicode = 006D;
},
{
glyphname = n;
lastChange = "2021-02-10 00:34:34 +0000";
layers = (
{
layerId = "EC678C9A-BAF7-4529-BA66-EDFBF106CBF7";
paths = (
{
closed = 1;
nodes = (
"514 304 LINE",
"514 0 LINE",
"404 0 LINE",
"404 289 LINE"
);
},
{
closed = 1;
nodes = (
"451 500 OFFCURVE",
"514 398 OFFCURVE",
"514 296 CURVE",
"404 273 LINE",
"404 320 OFFCURVE",
"381 390 OFFCURVE",
"287 390 CURVE",
"201 390 OFFCURVE",
"170 320 OFFCURVE",
"170 265 CURVE",
"115 343 LINE",
"131 421 OFFCURVE",
"178 500 OFFCURVE",
"319 500 CURVE"
);
},
{
closed = 1;
nodes = (
"170 484 LINE",
"170 0 LINE",
"60 0 LINE",
"60 484 LINE"
);
}
);
width = 574;
},
{
layerId = "5B189D8C-80C2-4E76-949E-52A655B49706";
width = 600;
}
);
unicode = 006E;
},
{
glyphname = o;
lastChange = "2021-02-12 01:51:25 +0000";
layers = (
{
layerId = "EC678C9A-BAF7-4529-BA66-EDFBF106CBF7";
paths = (
{
closed = 1;
nodes = (
"416 500 OFFCURVE",
"522 386 OFFCURVE",
"522 250 CURVE",
"522 114 OFFCURVE",
"416 0 OFFCURVE",
"280 0 CURVE",
"144 0 OFFCURVE",
"30 114 OFFCURVE",
"30 250 CURVE",
"30 386 OFFCURVE",
"144 500 OFFCURVE",
"280 500 CURVE"
);
},
{
closed = 1;
nodes = (
"136 174 OFFCURVE",
"197 114 OFFCURVE",
"272 114 CURVE SMOOTH",
"356 114 OFFCURVE",
"416 174 OFFCURVE",
"416 250 CURVE SMOOTH",
"416 326 OFFCURVE",
"356 386 OFFCURVE",
"272 386 CURVE SMOOTH",
"197 386 OFFCURVE",
"136 326 OFFCURVE",
"136 250 CURVE SMOOTH"
);
}
);
width = 552;
},
{
layerId = "5B189D8C-80C2-4E76-949E-52A655B49706";
paths = (
{
closed = 1;
nodes = (
"747 -170 OFFCURVE",
"613 -312 OFFCURVE",
"429 -312 CURVE",
"251 -312 OFFCURVE",
"112 -170 OFFCURVE",
"112 5 CURVE",
"112 181 OFFCURVE",
"258 323 OFFCURVE",
"429 323 CURVE",
"601 323 OFFCURVE",
"747 181 OFFCURVE",
"747 5 CURVE"
);
},
{
closed = 1;
nodes = (
"588 -82 OFFCURVE",
"521 -153 OFFCURVE",
"429 -153 CURVE",
"340 -153 OFFCURVE",
"271 -82 OFFCURVE",
"271 5 CURVE",
"271 93 OFFCURVE",
"344 164 OFFCURVE",
"429 164 CURVE",
"515 164 OFFCURVE",
"588 93 OFFCURVE",
"588 5 CURVE"
);
},
{
closed = 1;
nodes = (
"747 -170 OFFCURVE",
"613 -312 OFFCURVE",
"429 -312 CURVE",
"251 -312 OFFCURVE",
"112 -170 OFFCURVE",
"112 5 CURVE",
"112 181 OFFCURVE",
"258 323 OFFCURVE",
"429 323 CURVE",
"601 323 OFFCURVE",
"747 181 OFFCURVE",
"747 5 CURVE"
);
},
{
closed = 1;
nodes = (
"747 -170 OFFCURVE",
"613 -312 OFFCURVE",
"429 -312 CURVE",
"251 -312 OFFCURVE",
"112 -170 OFFCURVE",
"112 5 CURVE",
"112 181 OFFCURVE",
"258 323 OFFCURVE",
"429 323 CURVE",
"601 323 OFFCURVE",
"747 181 OFFCURVE",
"747 5 CURVE"
);
},
{
closed = 1;
nodes = (
"588 93 OFFCURVE",
"515 164 OFFCURVE",
"429 164 CURVE SMOOTH",
"344 164 OFFCURVE",
"271 93 OFFCURVE",
"271 5 CURVE SMOOTH",
"271 -82 OFFCURVE",
"340 -153 OFFCURVE",
"429 -153 CURVE SMOOTH",
"521 -153 OFFCURVE",
"588 -82 OFFCURVE",
"588 5 CURVE SMOOTH"
);
}
);
width = 600;
}
);
unicode = 006F;
},
{
glyphname = p;
lastChange = "2021-02-10 01:40:03 +0000";
layers = (
{
layerId = "EC678C9A-BAF7-4529-BA66-EDFBF106CBF7";
paths = (
{
closed = 1;
nodes = (
"60 492 LINE",
"60 -230 LINE",
"170 -230 LINE",
"170 492 LINE"
);
},
{
closed = 1;
nodes = (
"80 112 OFFCURVE",
"188 0 OFFCURVE",
"327 0 CURVE",
"464 0 OFFCURVE",
"578 113 OFFCURVE",
"578 250 CURVE",
"578 388 OFFCURVE",
"464 500 OFFCURVE",
"327 500 CURVE",
"188 500 OFFCURVE",
"80 388 OFFCURVE",
"80 250 CURVE"
);
},
{
closed = 1;
nodes = (
"170 325 OFFCURVE",
"230 396 OFFCURVE",
"314 396 CURVE SMOOTH",
"398 396 OFFCURVE",
"462 330 OFFCURVE",
"462 250 CURVE SMOOTH",
"462 169 OFFCURVE",
"398 105 OFFCURVE",
"314 105 CURVE SMOOTH",
"230 105 OFFCURVE",
"170 174 OFFCURVE",
"170 250 CURVE SMOOTH"
);
}
);
width = 608;
},
{
layerId = "5B189D8C-80C2-4E76-949E-52A655B49706";
width = 600;
}
);
unicode = 0070;
},
{
glyphname = q;
lastChange = "2021-02-10 17:17:47 +0000";
layers = (
{
layerId = "EC678C9A-BAF7-4529-BA66-EDFBF106CBF7";
paths = (
{
closed = 1;
nodes = (
"568 492 LINE",
"568 -230 LINE",
"457 -230 LINE",
"457 492 LINE"
);
},
{
closed = 1;
nodes = (
"548 111 OFFCURVE",
"440 0 OFFCURVE",
"301 0 CURVE",
"162 0 OFFCURVE",
"50 111 OFFCURVE",
"50 249 CURVE",
"50 388 OFFCURVE",
"162 500 OFFCURVE",
"301 500 CURVE",
"440 500 OFFCURVE",
"548 389 OFFCURVE",
"548 249 CURVE"
);
},
{
closed = 1;
nodes = (
"457 325 OFFCURVE",
"399 396 OFFCURVE",
"314 396 CURVE SMOOTH",
"230 396 OFFCURVE",
"165 331 OFFCURVE",
"165 249 CURVE SMOOTH",
"165 169 OFFCURVE",
"230 103 OFFCURVE",
"314 103 CURVE SMOOTH",
"399 103 OFFCURVE",
"457 175 OFFCURVE",
"457 249 CURVE SMOOTH"
);
}
);
width = 628;
},
{
layerId = "5B189D8C-80C2-4E76-949E-52A655B49706";
paths = (
{
closed = 1;
nodes = (
"604 491 LINE",
"604 -230 LINE",
"466 -230 LINE",
"466 491 LINE"
);
},
{
closed = 1;
nodes = (
"572 124 OFFCURVE",
"470 0 OFFCURVE",
"323 0 CURVE",
"186 0 OFFCURVE",
"80 112 OFFCURVE",
"80 250 CURVE",
"80 388 OFFCURVE",
"186 500 OFFCURVE",
"323 500 CURVE",
"470 500 OFFCURVE",
"572 370 OFFCURVE",
"572 250 CURVE"
);
},
{
closed = 1;
nodes = (
"466 322 OFFCURVE",
"410 375 OFFCURVE",
"338 375 CURVE SMOOTH",
"269 375 OFFCURVE",
"213 319 OFFCURVE",
"213 250 CURVE SMOOTH",
"213 182 OFFCURVE",
"269 126 OFFCURVE",
"338 126 CURVE SMOOTH",
"410 126 OFFCURVE",
"466 179 OFFCURVE",
"466 250 CURVE SMOOTH"
);
}
);
width = 684;
}
);
unicode = 0071;
},
{
glyphname = r;
lastChange = "2021-02-10 01:35:08 +0000";
layers = (
{
layerId = "EC678C9A-BAF7-4529-BA66-EDFBF106CBF7";
paths = (
{
closed = 1;
nodes = (
"186 487 LINE",
"186 0 LINE",
"70 0 LINE",
"70 487 LINE"
);
},
{
closed = 1;
nodes = (
"186 487 LINE",
"186 0 LINE",
"70 0 LINE",
"70 487 LINE"
);
},
{
closed = 1;
nodes = (
"335 502 OFFCURVE",
"347 500 OFFCURVE",
"347 500 CURVE",
"347 393 LINE",
"339 393 OFFCURVE",
"324 393 OFFCURVE",
"301 393 CURVE SMOOTH",
"201 393 OFFCURVE",
"186 307 OFFCURVE",
"186 254 CURVE",
"132 315 LINE",
"147 393 OFFCURVE",
"183 504 OFFCURVE",
"328 502 CURVE SMOOTH"
);
}
);
width = 377;
},
{
layerId = "5B189D8C-80C2-4E76-949E-52A655B49706";
width = 600;
}
);
unicode = 0072;
},
{
glyphname = s;
lastChange = "2021-02-10 02:34:43 +0000";
layers = (
{
layerId = "EC678C9A-BAF7-4529-BA66-EDFBF106CBF7";
paths = (
{
closed = 1;
nodes = (
"240 500 OFFCURVE",
"224 499 OFFCURVE",
"203 496 CURVE SMOOTH",
"158 488 OFFCURVE",
"123 466 OFFCURVE",
"103 447 CURVE SMOOTH",
"82 427 OFFCURVE",
"61 395 OFFCURVE",
"62 352 CURVE SMOOTH",
"64 311 OFFCURVE",
"84 286 OFFCURVE",
"103 268 CURVE SMOOTH",
"120 251 OFFCURVE",
"146 238 OFFCURVE",
"166 230 CURVE SMOOTH",
"186 221 OFFCURVE",
"226 210 OFFCURVE",
"253 201 CURVE SMOOTH",
"282 191 OFFCURVE",
"293 183 OFFCURVE",
"304 176 CURVE SMOOTH",
"313 170 OFFCURVE",
"324 158 OFFCURVE",
"322 140 CURVE SMOOTH",
"319 119 OFFCURVE",
"306 111 OFFCURVE",
"301 106 CURVE SMOOTH",
"297 102 OFFCURVE",
"273 91 OFFCURVE",
"240 91 CURVE SMOOTH",
"234 91 OFFCURVE",
"228 91 OFFCURVE",
"222 92 CURVE SMOOTH",
"180 98 OFFCURVE",
"159 118 OFFCURVE",
"151 124 CURVE SMOOTH",
"143 132 OFFCURVE",
"130 156 OFFCURVE",
"130 156 CURVE",
"130 156 OFFCURVE",
"62 124 OFFCURVE",
"40 115 CURVE",
"53 91 OFFCURVE",
"62 74 OFFCURVE",
"75 60 CURVE SMOOTH",
"107 24 OFFCURVE",
"140 15 OFFCURVE",
"158 10 CURVE SMOOTH",
"172 5 OFFCURVE",
"207 0 OFFCURVE",
"244 0 CURVE SMOOTH",
"254 0 OFFCURVE",
"265 1 OFFCURVE",
"275 1 CURVE SMOOTH",
"321 6 OFFCURVE",
"351 24 OFFCURVE",
"363 33 CURVE SMOOTH",
"377 41 OFFCURVE",
"399 58 OFFCURVE",
"416 91 CURVE SMOOTH",
"433 123 OFFCURVE",
"432 147 OFFCURVE",
"430 164 CURVE SMOOTH",
"428 182 OFFCURVE",
"419 213 OFFCURVE",
"395 235 CURVE SMOOTH",
"371 257 OFFCURVE",
"355 265 OFFCURVE",
"340 272 CURVE SMOOTH",
"326 279 OFFCURVE",
"283 294 OFFCURVE",
"261 299 CURVE SMOOTH",
"240 307 OFFCURVE",
"212 314 OFFCURVE",
"191 323 CURVE SMOOTH",
"172 332 OFFCURVE",
"167 343 OFFCURVE",
"166 357 CURVE SMOOTH",
"166 371 OFFCURVE",
"173 385 OFFCURVE",
"188 394 CURVE SMOOTH",
"202 402 OFFCURVE",
"220 406 OFFCURVE",
"235 407 CURVE SMOOTH",
"238 407 OFFCURVE",
"242 408 OFFCURVE",
"246 408 CURVE SMOOTH",
"258 408 OFFCURVE",
"272 406 OFFCURVE",
"293 397 CURVE SMOOTH",
"322 386 OFFCURVE",
"342 360 OFFCURVE",
"342 360 CURVE",
"426 395 LINE",
"426 395 OFFCURVE",
"426 395 OFFCURVE",
"423 403 CURVE SMOOTH",
"414 423 OFFCURVE",
"400 439 OFFCURVE",
"386 452 CURVE SMOOTH",
"348 485 OFFCURVE",
"315 491 OFFCURVE",
"296 496 CURVE SMOOTH",
"286 498 OFFCURVE",
"273 500 OFFCURVE",
"254 500 CURVE"
);
}
);
width = 471;
},
{
layerId = "5B189D8C-80C2-4E76-949E-52A655B49706";
width = 600;
}
);
unicode = 0073;
},
{
glyphname = t;
lastChange = "2021-02-10 01:34:43 +0000";
layers = (
{
layerId = "EC678C9A-BAF7-4529-BA66-EDFBF106CBF7";
paths = (
{
closed = 1;
nodes = (
"359 500 LINE",
"359 399 LINE",
"40 399 LINE",
"40 500 LINE"
);
},
{
closed = 1;
nodes = (
"242 639 LINE",
"242 140 LINE",
"133 140 LINE",
"133 593 LINE"
);
},
{
closed = 1;
nodes = (
"149 0 OFFCURVE",
"133 70 OFFCURVE",
"133 149 CURVE",
"242 149 LINE",
"242 124 OFFCURVE",
"250 101 OFFCURVE",
"297 101 CURVE SMOOTH",
"335 101 LINE",
"335 7 LINE",
"297 0 OFFCURVE",
"289 0 OFFCURVE",
"281 0 CURVE SMOOTH"
);
}
);
width = 399;
},
{
layerId = "5B189D8C-80C2-4E76-949E-52A655B49706";
width = 600;
}
);
unicode = 0074;
},
{
glyphname = u;
lastChange = "2021-02-10 00:34:34 +0000";
layers = (
{
layerId = "EC678C9A-BAF7-4529-BA66-EDFBF106CBF7";
paths = (
{
closed = 1;
nodes = (
"70 199 LINE",
"70 500 LINE",
"181 500 LINE",
"181 190 LINE"
);
},
{
closed = 1;
nodes = (
"138 0 OFFCURVE",
"70 97 OFFCURVE",
"70 199 CURVE",
"181 224 LINE",
"181 180 OFFCURVE",
"208 111 OFFCURVE",
"296 111 CURVE",
"384 111 OFFCURVE",
"413 180 OFFCURVE",
"413 235 CURVE",
"468 155 LINE",
"456 75 OFFCURVE",
"407 0 OFFCURVE",
"272 0 CURVE"
);
},
{
closed = 1;
nodes = (
"413 9 LINE",
"413 500 LINE",
"524 500 LINE",
"524 9 LINE"
);
}
);
width = 594;
},
{
layerId = "5B189D8C-80C2-4E76-949E-52A655B49706";
width = 600;
}
);
unicode = 0075;
},
{
glyphname = v;
lastChange = "2021-02-12 01:50:46 +0000";
layers = (
{
layerId = "EC678C9A-BAF7-4529-BA66-EDFBF106CBF7";
paths = (
{
closed = 1;
nodes = (
"141 500 LINE",
"343 0 LINE",
"222 0 LINE",
"20 500 LINE"
);
},
{
closed = 1;
nodes = (
"367 0 LINE",
"254 0 LINE",
"455 500 LINE",
"576 500 LINE"
);
}
);
width = 566;
},
{
layerId = "5B189D8C-80C2-4E76-949E-52A655B49706";
width = 600;
}
);
unicode = 0076;
},
{
glyphname = w;
lastChange = "2021-02-12 01:50:53 +0000";
layers = (
{
layerId = "EC678C9A-BAF7-4529-BA66-EDFBF106CBF7";
paths = (
{
closed = 1;
nodes = (
"153 500 LINE",
"273 0 LINE",
"177 0 LINE",
"40 500 LINE"
);
},
{
closed = 1;
nodes = (
"605 0 LINE",
"508 0 LINE",
"628 500 LINE",
"741 500 LINE"
);
},
{
closed = 1;
nodes = (
"282 0 LINE",
"185 0 LINE",
"330 500 LINE",
"443 500 LINE"
);
},
{
closed = 1;
nodes = (
"443 500 LINE",
"596 0 LINE",
"492 0 LINE",
"338 500 LINE"
);
}
);
width = 781;
},
{
layerId = "5B189D8C-80C2-4E76-949E-52A655B49706";
width = 600;
}
);
unicode = 0077;
},
{
glyphname = x;
lastChange = "2021-02-10 00:34:34 +0000";
layers = (
{
layerId = "EC678C9A-BAF7-4529-BA66-EDFBF106CBF7";
paths = (
{
closed = 1;
nodes = (
"165 500 LINE",
"544 0 LINE",
"399 0 LINE",
"20 500 LINE"
);
},
{
closed = 1;
nodes = (
"165 0 LINE",
"20 0 LINE",
"399 500 LINE",
"544 500 LINE"
);
}
);
width = 584;
},
{
layerId = "5B189D8C-80C2-4E76-949E-52A655B49706";
width = 600;
}
);
unicode = 0078;
},
{
glyphname = y;
lastChange = "2021-02-10 00:34:34 +0000";
layers = (
{
layerId = "EC678C9A-BAF7-4529-BA66-EDFBF106CBF7";
paths = (
{
closed = 1;
nodes = (
"258 0 LINE",
"357 73 LINE",
"155 500 LINE",
"20 500 LINE"
);
},
{
closed = 1;
nodes = (
"447 500 LINE",
"282 48 LINE",
"258 9 LINE",
"242 -42 LINE",
"345 -74 LINE",
"582 500 LINE"
);
},
{
closed = 1;
nodes = (
"155 -127 OFFCURVE",
"218 -106 OFFCURVE",
"242 -42 CURVE",
"345 -74 LINE",
"306 -177 OFFCURVE",
"234 -230 OFFCURVE",
"91 -230 CURVE SMOOTH",
"76 -230 LINE",
"76 -127 LINE",
"91 -127 LINE SMOOTH"
);
}
);
width = 590;
},
{
layerId = "5B189D8C-80C2-4E76-949E-52A655B49706";
width = 600;
}
);
unicode = 0079;
},
{
glyphname = z;
lastChange = "2021-02-10 00:34:34 +0000";
layers = (
{
layerId = "EC678C9A-BAF7-4529-BA66-EDFBF106CBF7";
paths = (
{
closed = 1;
nodes = (
"50 500 LINE",
"50 403 LINE",
"324 403 LINE",
"413 500 LINE",
"477 500 LINE"
);
},
{
closed = 1;
nodes = (
"413 500 LINE",
"324 403 LINE",
"477 403 LINE",
"477 500 LINE",
"477 500 LINE"
);
},
{
closed = 1;
nodes = (
"50 97 LINE",
"211 97 LINE",
"477 403 LINE",
"477 403 LINE",
"324 403 LINE",
"50 97 LINE",
"50 0 LINE",
"123 0 LINE",
"123 0 LINE",
"50 0 LINE"
);
},
{
closed = 1;
nodes = (
"477 500 LINE",
"477 500 LINE",
"477 403 LINE",
"477 403 LINE",
"477 500 LINE"
);
},
{
closed = 1;
nodes = (
"123 0 LINE",
"437 0 LINE",
"437 97 LINE",
"211 97 LINE",
"50 97 LINE",
"50 0 LINE"
);
},
{
closed = 1;
nodes = (
"477 97 LINE",
"477 16 LINE"
);
},
{
closed = 1;
nodes = (
"477 0 LINE",
"477 16 LINE",
"477 97 LINE",
"437 97 LINE",
"437 0 LINE"
);
}
);
width = 527;
},
{
layerId = "5B189D8C-80C2-4E76-949E-52A655B49706";
width = 600;
}
);
unicode = 007A;
},
{
glyphname = zero;
lastChange = "2021-02-12 01:43:23 +0000";
layers = (
{
layerId = "EC678C9A-BAF7-4529-BA66-EDFBF106CBF7";
paths = (
{
closed = 1;
nodes = (
"311 368 LINE",
"311 632 LINE",
"368 632 OFFCURVE",
"400 607 OFFCURVE",
"424 578 CURVE",
"444 554 OFFCURVE",
"460 514 OFFCURVE",
"460 442 CURVE",
"460 368 LINE",
"572 368 LINE",
"572 482 OFFCURVE",
"572 573 OFFCURVE",
"499 658 CURVE",
"452 711 OFFCURVE",
"390 735 OFFCURVE",
"311 735 CURVE"
);
},
{
closed = 1;
nodes = (
"311 632 LINE",
"253 632 OFFCURVE",
"221 607 OFFCURVE",
"197 578 CURVE",
"178 554 OFFCURVE",
"162 514 OFFCURVE",
"162 442 CURVE",
"162 368 LINE",
"50 368 LINE",
"50 482 OFFCURVE",
"50 573 OFFCURVE",
"123 658 CURVE",
"169 711 OFFCURVE",
"231 735 OFFCURVE",
"311 735 CURVE"
);
},
{
closed = 1;
nodes = (
"311 103 LINE",
"253 103 OFFCURVE",
"221 128 OFFCURVE",
"197 157 CURVE",
"178 181 OFFCURVE",
"162 221 OFFCURVE",
"162 293 CURVE",
"162 368 LINE",
"311 368 LINE",
"50 368 LINE",
"50 253 OFFCURVE",
"50 162 OFFCURVE",
"123 78 CURVE",
"169 24 OFFCURVE",
"231 0 OFFCURVE",
"311 0 CURVE"
);
},
{
closed = 1;
nodes = (
"452 24 OFFCURVE",
"390 0 OFFCURVE",
"311 0 CURVE",
"311 368 LINE",
"311 103 LINE",
"368 103 OFFCURVE",
"400 128 OFFCURVE",
"424 157 CURVE SMOOTH",
"444 181 OFFCURVE",
"460 221 OFFCURVE",
"460 293 CURVE SMOOTH",
"460 368 LINE",
"311 368 LINE",
"572 368 LINE",
"572 253 OFFCURVE",
"572 162 OFFCURVE",
"499 78 CURVE SMOOTH"
);
}
);
width = 632;
},
{
layerId = "5B189D8C-80C2-4E76-949E-52A655B49706";
width = 600;
}
);
unicode = 0030;
},
{
glyphname = one;
lastChange = "2021-02-12 01:43:04 +0000";
layers = (
{
layerId = "EC678C9A-BAF7-4529-BA66-EDFBF106CBF7";
paths = (
{
closed = 1;
nodes = (
"231 735 LINE",
"231 0 LINE",
"119 0 LINE",
"119 735 LINE"
);
},
{
closed = 1;
nodes = (
"176 623 LINE",
"50 623 LINE",
"50 735 LINE",
"176 735 LINE"
);
}
);
width = 331;
},
{
layerId = "5B189D8C-80C2-4E76-949E-52A655B49706";
width = 600;
}
);
unicode = 0031;
},
{
glyphname = two;
lastChange = "2021-02-12 01:54:51 +0000";
layers = (
{
layerId = "EC678C9A-BAF7-4529-BA66-EDFBF106CBF7";
paths = (
{
closed = 1;
nodes = (
"81 110 LINE",
"524 110 LINE",
"524 0 LINE",
"59 0 LINE",
"59 91 LINE"
);
},
{
closed = 1;
nodes = (
"377 409 LINE",
"403 295 LINE",
"129 21 LINE",
"59 91 LINE"
);
},
{
closed = 1;
nodes = (
"454 664 OFFCURVE",
"454 664 OFFCURVE",
"455 664 CURVE SMOOTH",
"534 577 OFFCURVE",
"556 448 OFFCURVE",
"395 286 CURVE SMOOTH",
"340 229 OFFCURVE",
"272 219 OFFCURVE",
"207 238 CURVE",
"210 242 LINE",
"315 347 LINE SMOOTH",
"316 349 OFFCURVE",
"317 350 OFFCURVE",
"320 351 CURVE SMOOTH",
"423 455 OFFCURVE",
"425 533 OFFCURVE",
"375 589 CURVE SMOOTH",
"373 591 OFFCURVE",
"371 595 OFFCURVE",
"368 597 CURVE SMOOTH",
"317 643 OFFCURVE",
"224 644 OFFCURVE",
"168 587 CURVE SMOOTH",
"155 573 OFFCURVE",
"143 559 OFFCURVE",
"135 542 CURVE",
"55 595 LINE",
"50 598 LINE",
"63 622 OFFCURVE",
"78 643 OFFCURVE",
"98 661 CURVE SMOOTH",
"181 744 OFFCURVE",
"316 754 OFFCURVE",
"407 703 CURVE SMOOTH",
"423 693 OFFCURVE",
"436 683 OFFCURVE",
"447 671 CURVE SMOOTH",
"448 669 OFFCURVE",
"449 669 OFFCURVE",
"449 668 CURVE SMOOTH",
"452 667 OFFCURVE",
"453 665 OFFCURVE",
"454 664 CURVE SMOOTH"
);
}
);
width = 584;
},
{
layerId = "5B189D8C-80C2-4E76-949E-52A655B49706";
width = 600;
}
);
unicode = 0032;
},
{
glyphname = three;
lastChange = "2021-02-12 01:43:11 +0000";
layers = (
{
layerId = "EC678C9A-BAF7-4529-BA66-EDFBF106CBF7";
paths = (
{
closed = 1;
nodes = (
"244 428 LINE",
"279 428 LINE",
"279 335 LINE",
"247 335 LINE",
"245 335 LINE",
"244 335 LINE",
"243 335 LINE",
"243 360 LINE",
"243 391 LINE",
"243 411 LINE",
"243 428 LINE"
);
},
{
closed = 1;
nodes = (
"445 735 OFFCURVE",
"487 621 OFFCURVE",
"487 554 CURVE",
"487 481 OFFCURVE",
"450 422 OFFCURVE",
"393 389 CURVE",
"466 357 OFFCURVE",
"512 294 OFFCURVE",
"512 209 CURVE",
"512 82 OFFCURVE",
"407 0 OFFCURVE",
"270 0 CURVE",
"166 0 OFFCURVE",
"89 44 OFFCURVE",
"50 111 CURVE",
"150 163 LINE",
"175 130 OFFCURVE",
"217 109 OFFCURVE",
"268 109 CURVE",
"344 109 OFFCURVE",
"405 148 OFFCURVE",
"405 221 CURVE",
"405 260 OFFCURVE",
"393 334 OFFCURVE",
"247 335 CURVE",
"245 335 LINE",
"244 335 LINE",
"243 335 LINE",
"243 360 LINE",
"243 391 LINE",
"243 411 LINE",
"243 428 LINE",
"244 428 LINE",
"244 428 LINE",
"331 430 OFFCURVE",
"374 486 OFFCURVE",
"374 531 CURVE",
"374 587 OFFCURVE",
"336 624 OFFCURVE",
"264 624 CURVE",
"212 624 OFFCURVE",
"173 597 OFFCURVE",
"151 552 CURVE",
"62 599 LINE",
"96 691 OFFCURVE",
"179 735 OFFCURVE",
"274 735 CURVE"
);
}
);
width = 562;
},
{
layerId = "5B189D8C-80C2-4E76-949E-52A655B49706";
width = 600;
}
);
unicode = 0033;
},
{
glyphname = four;
lastChange = "2021-02-12 01:43:39 +0000";
layers = (
{
layerId = "EC678C9A-BAF7-4529-BA66-EDFBF106CBF7";
paths = (
{
closed = 1;
nodes = (
"360 0 LINE",
"472 0 LINE",
"472 735 LINE",
"360 735 LINE"
);
},
{
closed = 1;
nodes = (
"20 153 LINE",
"575 153 LINE",
"575 266 LINE",
"46 266 LINE",
"20 248 LINE"
);
},
{
closed = 1;
nodes = (
"144 247 LINE",
"472 735 LINE",
"347 735 LINE",
"20 247 LINE"
);
}
);
width = 635;
},
{
layerId = "5B189D8C-80C2-4E76-949E-52A655B49706";
width = 600;
}
);
unicode = 0034;
},
{
glyphname = five;
lastChange = "2021-02-12 01:43:20 +0000";
layers = (
{
layerId = "EC678C9A-BAF7-4529-BA66-EDFBF106CBF7";
paths = (
{
closed = 1;
nodes = (
"152 735 LINE",
"491 735 LINE",
"491 625 LINE",
"136 625 LINE",
"136 717 LINE"
);
},
{
closed = 1;
nodes = (
"202 716 LINE",
"180 342 LINE",
"165 323 LINE",
"165 322 LINE",
"108 337 LINE",
"78 345 LINE",
"78 345 LINE",
"79 352 LINE",
"102 735 LINE",
"195 735 LINE"
);
},
{
closed = 1;
nodes = (
"518 99 OFFCURVE",
"412 0 OFFCURVE",
"272 0 CURVE",
"168 0 OFFCURVE",
"90 44 OFFCURVE",
"50 111 CURVE",
"147 163 LINE",
"174 128 OFFCURVE",
"216 104 OFFCURVE",
"268 104 CURVE",
"344 104 OFFCURVE",
"407 152 OFFCURVE",
"407 226 CURVE",
"407 292 OFFCURVE",
"360 351 OFFCURVE",
"264 351 CURVE",
"229 351 OFFCURVE",
"197 338 OFFCURVE",
"172 320 CURVE",
"165 322 LINE",
"165 322 LINE",
"108 337 LINE",
"79 345 LINE",
"128 400 OFFCURVE",
"203 447 OFFCURVE",
"292 447 CURVE",
"440 447 OFFCURVE",
"518 345 OFFCURVE",
"518 217 CURVE"
);
},
{
closed = 1;
nodes = (
"79 352 LINE",
"78 345 LINE",
"78 345 LINE"
);
}
);
width = 578;
},
{
layerId = "5B189D8C-80C2-4E76-949E-52A655B49706";
width = 600;
}
);
unicode = 0035;
},
{
glyphname = six;
lastChange = "2021-02-12 01:43:21 +0000";
layers = (
{
layerId = "EC678C9A-BAF7-4529-BA66-EDFBF106CBF7";
paths = (
{
closed = 1;
nodes = (
"308 735 LINE",
"447 735 LINE",
"191 323 LINE",
"87 361 LINE"
);
},
{
closed = 1;
nodes = (
"442 0 OFFCURVE",
"532 104 OFFCURVE",
"532 231 CURVE",
"50 231 LINE",
"50 104 OFFCURVE",
"140 0 OFFCURVE",
"292 0 CURVE"
);
},
{
closed = 1;
nodes = (
"50 358 OFFCURVE",
"140 457 OFFCURVE",
"292 457 CURVE",
"368 457 OFFCURVE",
"429 435 OFFCURVE",
"470 393 CURVE",
"511 351 OFFCURVE",
"532 294 OFFCURVE",
"532 231 CURVE",
"50 231 LINE"
);
},
{
closed = 1;
nodes = (
"212 109 OFFCURVE",
"163 164 OFFCURVE",
"163 231 CURVE",
"419 231 LINE",
"419 164 OFFCURVE",
"371 109 OFFCURVE",
"292 109 CURVE"
);
},
{
closed = 1;
nodes = (
"212 354 OFFCURVE",
"163 299 OFFCURVE",
"163 231 CURVE",
"419 231 LINE",
"419 299 OFFCURVE",
"371 354 OFFCURVE",
"292 354 CURVE SMOOTH"
);
}
);
width = 592;
},
{
layerId = "5B189D8C-80C2-4E76-949E-52A655B49706";
width = 600;
}
);
unicode = 0036;
},
{
glyphname = seven;
lastChange = "2021-02-12 01:44:16 +0000";
layers = (
{
layerId = "EC678C9A-BAF7-4529-BA66-EDFBF106CBF7";
paths = (
{
closed = 1;
nodes = (
"76 735 LINE",
"597 735 LINE",
"540 623 LINE",
"50 623 LINE",
"50 735 LINE"
);
},
{
closed = 1;
nodes = (
"457 707 LINE",
"583 707 LINE",
"236 0 LINE",
"111 0 LINE"
);
}
);
width = 597;
},
{
layerId = "5B189D8C-80C2-4E76-949E-52A655B49706";
width = 600;
}
);
unicode = 0037;
},
{
glyphname = eight;
lastChange = "2021-02-12 01:44:12 +0000";
layers = (
{
layerId = "EC678C9A-BAF7-4529-BA66-EDFBF106CBF7";
paths = (
{
closed = 1;
nodes = (
"432 735 OFFCURVE",
"513 649 OFFCURVE",
"513 543 CURVE",
"513 437 OFFCURVE",
"432 351 OFFCURVE",
"298 351 CURVE",
"164 351 OFFCURVE",
"83 437 OFFCURVE",
"83 543 CURVE",
"83 649 OFFCURVE",
"164 735 OFFCURVE",
"298 735 CURVE"
);
},
{
closed = 1;
nodes = (
"406 597 OFFCURVE",
"364 639 OFFCURVE",
"298 639 CURVE",
"232 639 OFFCURVE",
"191 597 OFFCURVE",
"188 543 CURVE",
"188 541 OFFCURVE",
"188 539 OFFCURVE",
"188 537 CURVE",
"188 480 OFFCURVE",
"229 435 OFFCURVE",
"298 435 CURVE",
"367 435 OFFCURVE",
"409 480 OFFCURVE",
"409 537 CURVE",
"409 539 OFFCURVE",
"409 541 OFFCURVE",
"409 543 CURVE"
);
},
{
closed = 1;
nodes = (
"536 96 OFFCURVE",
"447 0 OFFCURVE",
"298 0 CURVE",
"149 0 OFFCURVE",
"60 96 OFFCURVE",
"60 213 CURVE",
"60 332 OFFCURVE",
"149 427 OFFCURVE",
"298 427 CURVE",
"447 427 OFFCURVE",
"536 332 OFFCURVE",
"536 213 CURVE"
);
},
{
closed = 1;
nodes = (
"423 215 OFFCURVE",
"423 217 OFFCURVE",
"423 219 CURVE SMOOTH",
"423 286 OFFCURVE",
"375 340 OFFCURVE",
"294 340 CURVE SMOOTH",
"213 340 OFFCURVE",
"164 286 OFFCURVE",
"164 219 CURVE SMOOTH",
"164 217 OFFCURVE",
"164 215 OFFCURVE",
"164 213 CURVE SMOOTH",
"167 150 OFFCURVE",
"216 100 OFFCURVE",
"294 100 CURVE SMOOTH",
"372 100 OFFCURVE",
"421 150 OFFCURVE",
"423 213 CURVE SMOOTH"
);
}
);
width = 596;
},
{
layerId = "5B189D8C-80C2-4E76-949E-52A655B49706";
width = 600;
}
);
unicode = 0038;
},
{
glyphname = nine;
lastChange = "2021-02-12 01:43:31 +0000";
layers = (
{
layerId = "EC678C9A-BAF7-4529-BA66-EDFBF106CBF7";
paths = (
{
closed = 1;
nodes = (
"275 0 LINE",
"136 0 LINE",
"392 412 LINE",
"495 374 LINE"
);
},
{
closed = 1;
nodes = (
"140 735 OFFCURVE",
"50 631 OFFCURVE",
"50 504 CURVE",
"533 504 LINE",
"533 631 OFFCURVE",
"443 735 OFFCURVE",
"291 735 CURVE"
);
},
{
closed = 1;
nodes = (
"533 376 OFFCURVE",
"443 278 OFFCURVE",
"291 278 CURVE",
"215 278 OFFCURVE",
"153 301 OFFCURVE",
"113 343 CURVE",
"72 384 OFFCURVE",
"50 441 OFFCURVE",
"50 504 CURVE",
"533 504 LINE"
);
},
{
closed = 1;
nodes = (
"371 626 OFFCURVE",
"419 571 OFFCURVE",
"419 504 CURVE",
"164 504 LINE",
"164 571 OFFCURVE",
"212 626 OFFCURVE",
"291 626 CURVE"
);
},
{
closed = 1;
nodes = (
"371 381 OFFCURVE",
"419 437 OFFCURVE",
"419 504 CURVE",
"164 504 LINE",
"164 437 OFFCURVE",
"212 381 OFFCURVE",
"291 381 CURVE SMOOTH"
);
}
);
width = 593;
},
{
layerId = "5B189D8C-80C2-4E76-949E-52A655B49706";
width = 600;
}
);
unicode = 0039;
},
{
glyphname = period;
lastChange = "2021-02-10 00:34:33 +0000";
layers = (
{
layerId = "EC678C9A-BAF7-4529-BA66-EDFBF106CBF7";
paths = (
{
closed = 1;
nodes = (
"133 125 OFFCURVE",
"162 96 OFFCURVE",
"162 66 CURVE SMOOTH",
"162 29 OFFCURVE",
"133 0 OFFCURVE",
"96 0 CURVE SMOOTH",
"59 0 OFFCURVE",
"30 29 OFFCURVE",
"30 66 CURVE SMOOTH",
"30 96 OFFCURVE",
"59 125 OFFCURVE",
"96 125 CURVE SMOOTH"
);
}
);
width = 192;
},
{
layerId = "5B189D8C-80C2-4E76-949E-52A655B49706";
width = 600;
}
);
unicode = 002E;
},
{
glyphname = comma;
lastChange = "2021-02-11 05:12:05 +0000";
layers = (
{
layerId = "EC678C9A-BAF7-4529-BA66-EDFBF106CBF7";
paths = (
{
closed = 1;
nodes = (
"80 76 LINE",
"50 -120 LINE",
"114 -120 LINE",
"195 76 LINE"
);
}
);
width = 245;
},
{
layerId = "5B189D8C-80C2-4E76-949E-52A655B49706";
width = 600;
}
);
unicode = 002C;
},
{
glyphname = colon;
lastChange = "2021-02-12 01:49:45 +0000";
layers = (
{
layerId = "EC678C9A-BAF7-4529-BA66-EDFBF106CBF7";
paths = (
{
closed = 1;
nodes = (
"198 605 OFFCURVE",
"234 572 OFFCURVE",
"234 530 CURVE",
"234 488 OFFCURVE",
"198 455 OFFCURVE",
"157 455 CURVE",
"116 455 OFFCURVE",
"80 488 OFFCURVE",
"80 530 CURVE",
"80 572 OFFCURVE",
"116 605 OFFCURVE",
"157 605 CURVE"
);
},
{
closed = 1;
nodes = (
"198 212 OFFCURVE",
"234 179 OFFCURVE",
"234 138 CURVE SMOOTH",
"234 96 OFFCURVE",
"198 63 OFFCURVE",
"157 63 CURVE SMOOTH",
"116 63 OFFCURVE",
"80 96 OFFCURVE",
"80 138 CURVE SMOOTH",
"80 179 OFFCURVE",
"116 212 OFFCURVE",
"157 212 CURVE SMOOTH"
);
}
);
width = 284;
},
{
layerId = "5B189D8C-80C2-4E76-949E-52A655B49706";
width = 600;
}
);
unicode = 003A;
},
{
glyphname = semicolon;
lastChange = "2021-02-12 01:50:22 +0000";
layers = (
{
layerId = "EC678C9A-BAF7-4529-BA66-EDFBF106CBF7";
paths = (
{
closed = 1;
nodes = (
"94 90 LINE",
"60 -131 LINE",
"133 -131 LINE",
"224 90 LINE"
);
},
{
closed = 1;
nodes = (
"194 500 OFFCURVE",
"222 473 OFFCURVE",
"222 440 CURVE SMOOTH",
"222 407 OFFCURVE",
"194 380 OFFCURVE",
"160 380 CURVE SMOOTH",
"127 380 OFFCURVE",
"101 407 OFFCURVE",
"101 440 CURVE SMOOTH",
"101 473 OFFCURVE",
"127 500 OFFCURVE",
"160 500 CURVE SMOOTH"
);
}
);
width = 274;
},
{
layerId = "5B189D8C-80C2-4E76-949E-52A655B49706";
width = 600;
}
);
unicode = 003B;
},
{
glyphname = exclam;
lastChange = "2021-02-12 01:45:44 +0000";
layers = (
{
layerId = "EC678C9A-BAF7-4529-BA66-EDFBF106CBF7";
paths = (
{
closed = 1;
nodes = (
"161 735 LINE",
"161 206 LINE",
"102 206 LINE",
"80 735 LINE"
);
},
{
closed = 1;
nodes = (
"190 206 LINE",
"131 206 LINE",
"131 735 LINE",
"212 735 LINE"
);
},
{
closed = 1;
nodes = (
"183 125 OFFCURVE",
"212 96 OFFCURVE",
"212 66 CURVE SMOOTH",
"212 29 OFFCURVE",
"183 0 OFFCURVE",
"146 0 CURVE SMOOTH",
"109 0 OFFCURVE",
"80 29 OFFCURVE",
"80 66 CURVE SMOOTH",
"80 96 OFFCURVE",
"109 125 OFFCURVE",
"146 125 CURVE SMOOTH"
);
}
);
width = 312;
},
{
layerId = "5B189D8C-80C2-4E76-949E-52A655B49706";
width = 600;
}
);
unicode = 0021;
},
{
glyphname = question;
lastChange = "2021-02-12 01:46:40 +0000";
layers = (
{
layerId = "EC678C9A-BAF7-4529-BA66-EDFBF106CBF7";
paths = (
{
closed = 1;
nodes = (
"305 30 OFFCURVE",
"276 0 OFFCURVE",
"238 0 CURVE",
"202 0 OFFCURVE",
"171 30 OFFCURVE",
"171 66 CURVE",
"171 103 OFFCURVE",
"202 134 OFFCURVE",
"238 134 CURVE",
"276 134 OFFCURVE",
"305 103 OFFCURVE",
"305 66 CURVE"
);
},
{
closed = 1;
nodes = (
"225 362 OFFCURVE",
"250 388 OFFCURVE",
"268 405 CURVE",
"354 359 LINE",
"330 338 OFFCURVE",
"308 314 OFFCURVE",
"297 291 CURVE",
"286 267 OFFCURVE",
"286 243 OFFCURVE",
"286 209 CURVE",
"186 209 LINE",
"186 240 LINE",
"186 255 OFFCURVE",
"188 266 OFFCURVE",
"189 278 CURVE",
"191 290 OFFCURVE",
"194 301 OFFCURVE",
"198 312 CURVE",
"198 314 OFFCURVE",
"210 335 OFFCURVE",
"215 345 CURVE"
);
},
{
closed = 1;
nodes = (
"422 693 OFFCURVE",
"422 693 OFFCURVE",
"422 693 CURVE SMOOTH",
"497 617 OFFCURVE",
"511 508 OFFCURVE",
"357 362 CURVE SMOOTH",
"316 324 OFFCURVE",
"267 307 OFFCURVE",
"221 310 CURVE",
"189 278 LINE",
"191 290 OFFCURVE",
"194 302 OFFCURVE",
"198 312 CURVE SMOOTH",
"202 322 OFFCURVE",
"210 335 OFFCURVE",
"215 345 CURVE SMOOTH",
"225 362 OFFCURVE",
"250 388 OFFCURVE",
"268 405 CURVE SMOOTH",
"272 410 OFFCURVE",
"288 423 OFFCURVE",
"289 424 CURVE SMOOTH",
"388 512 OFFCURVE",
"388 579 OFFCURVE",
"346 621 CURVE SMOOTH",
"344 623 OFFCURVE",
"341 625 OFFCURVE",
"337 627 CURVE SMOOTH",
"290 666 OFFCURVE",
"202 666 OFFCURVE",
"148 620 CURVE SMOOTH",
"140 614 OFFCURVE",
"133 607 OFFCURVE",
"127 598 CURVE SMOOTH",
"121 589 OFFCURVE",
"114 580 OFFCURVE",
"107 572 CURVE",
"31 621 LINE",
"30 623 LINE",
"40 647 OFFCURVE",
"58 671 OFFCURVE",
"81 690 CURVE SMOOTH",
"160 765 OFFCURVE",
"291 773 OFFCURVE",
"378 726 CURVE SMOOTH",
"393 719 OFFCURVE",
"412 704 OFFCURVE",
"422 693 CURVE SMOOTH"
);
}
);
width = 536;
},
{
layerId = "5B189D8C-80C2-4E76-949E-52A655B49706";
width = 600;
}
);
unicode = 003F;
},
{
glyphname = asterisk;
lastChange = "2021-02-12 01:47:29 +0000";
layers = (
{
layerId = "EC678C9A-BAF7-4529-BA66-EDFBF106CBF7";
paths = (
{
closed = 1;
nodes = (
"311 715 LINE",
"311 538 LINE",
"216 538 LINE",
"216 715 LINE"
);
},
{
closed = 1;
nodes = (
"87 626 LINE",
"257 571 LINE",
"223 483 LINE",
"60 538 LINE"
);
},
{
closed = 1;
nodes = (
"290 483 LINE",
"264 571 LINE",
"434 626 LINE",
"461 538 LINE"
);
},
{
closed = 1;
nodes = (
"175 321 LINE",
"101 381 LINE",
"202 525 LINE",
"284 463 LINE"
);
},
{
closed = 1;
nodes = (
"325 525 LINE",
"428 381 LINE",
"352 321 LINE",
"244 463 LINE"
);
},
{
closed = 1;
nodes = (
"305 552 LINE",
"305 469 LINE",
"223 469 LINE",
"223 552 LINE"
);
}
);
width = 521;
},
{
layerId = "5B189D8C-80C2-4E76-949E-52A655B49706";
width = 600;
}
);
unicode = 002A;
},
{
glyphname = numbersign;
lastChange = "2021-02-12 01:48:08 +0000";
layers = (
{
layerId = "EC678C9A-BAF7-4529-BA66-EDFBF106CBF7";
paths = (
{
closed = 1;
nodes = (
"385 666 LINE",
"290 -69 LINE",
"183 -69 LINE",
"279 666 LINE"
);
},
{
closed = 1;
nodes = (
"684 666 LINE",
"589 -69 LINE",
"482 -69 LINE",
"578 666 LINE"
);
},
{
closed = 1;
nodes = (
"795 393 LINE",
"60 393 LINE",
"60 500 LINE",
"795 500 LINE"
);
},
{
closed = 1;
nodes = (
"795 105 LINE",
"60 105 LINE",
"60 211 LINE",
"795 211 LINE"
);
}
);
width = 855;
},
{
layerId = "5B189D8C-80C2-4E76-949E-52A655B49706";
width = 600;
}
);
unicode = 0023;
},
{
glyphname = slash;
lastChange = "2021-02-12 01:51:15 +0000";
layers = (
{
layerId = "EC678C9A-BAF7-4529-BA66-EDFBF106CBF7";
paths = (
{
closed = 1;
nodes = (
"100 -148 LINE",
"10 -148 LINE",
"290 735 LINE",
"378 735 LINE"
);
}
);
width = 388;
},
{
layerId = "5B189D8C-80C2-4E76-949E-52A655B49706";
width = 600;
}
);
unicode = 002F;
},
{
glyphname = backslash;
lastChange = "2021-02-12 01:51:30 +0000";
layers = (
{
layerId = "EC678C9A-BAF7-4529-BA66-EDFBF106CBF7";
paths = (
{
closed = 1;
nodes = (
"98 735 LINE",
"378 -148 LINE",
"288 -148 LINE",
"10 735 LINE"
);
}
);
width = 388;
},
{
layerId = "5B189D8C-80C2-4E76-949E-52A655B49706";
width = 600;
}
);
unicode = 005C;
},
{
glyphname = parenleft;
lastChange = "2021-02-11 05:00:24 +0000";
layers = (
{
layerId = "EC678C9A-BAF7-4529-BA66-EDFBF106CBF7";
paths = (
{
closed = 1;
nodes = (
"187 81 OFFCURVE",
"156 214 OFFCURVE",
"156 362 CURVE SMOOTH",
"156 515 OFFCURVE",
"190 653 OFFCURVE",
"246 755 CURVE",
"158 755 LINE",
"93 663 OFFCURVE",
"50 522 OFFCURVE",
"50 362 CURVE SMOOTH",
"50 209 OFFCURVE",
"90 72 OFFCURVE",
"151 -20 CURVE",
"239 -20 LINE"
);
}
);
width = 296;
},
{
layerId = "5B189D8C-80C2-4E76-949E-52A655B49706";
width = 600;
}
);
unicode = 0028;
},
{
glyphname = parenright;
lastChange = "2021-02-11 04:59:00 +0000";
layers = (
{
layerId = "EC678C9A-BAF7-4529-BA66-EDFBF106CBF7";
paths = (
{
closed = 1;
nodes = (
"146 -20 LINE",
"207 72 OFFCURVE",
"246 208 OFFCURVE",
"246 361 CURVE SMOOTH",
"246 522 OFFCURVE",
"203 664 OFFCURVE",
"137 755 CURVE",
"50 755 LINE",
"106 653 OFFCURVE",
"140 514 OFFCURVE",
"140 361 CURVE SMOOTH",
"140 214 OFFCURVE",
"109 81 OFFCURVE",
"57 -20 CURVE"
);
}
);
width = 296;
},
{
layerId = "5B189D8C-80C2-4E76-949E-52A655B49706";
width = 600;
}
);
unicode = 0029;
},
{
glyphname = braceleft;
lastChange = "2021-02-12 01:45:14 +0000";
layers = (
{
layerId = "EC678C9A-BAF7-4529-BA66-EDFBF106CBF7";
paths = (
{
closed = 1;
nodes = (
"275 735 OFFCURVE",
"248 733 OFFCURVE",
"230 724 CURVE SMOOTH",
"168 688 OFFCURVE",
"174 641 OFFCURVE",
"171 615 CURVE SMOOTH",
"169 589 OFFCURVE",
"179 456 OFFCURVE",
"146 410 CURVE SMOOTH",
"118 370 OFFCURVE",
"81 367 OFFCURVE",
"72 367 CURVE SMOOTH",
"70 367 OFFCURVE",
"70 368 OFFCURVE",
"70 368 CURVE",
"70 368 OFFCURVE",
"70 368 OFFCURVE",
"70 295 CURVE",
"110 293 OFFCURVE",
"124 276 OFFCURVE",
"141 260 CURVE SMOOTH",
"159 245 OFFCURVE",
"171 195 OFFCURVE",
"171 93 CURVE SMOOTH",
"170 -10 OFFCURVE",
"182 -20 OFFCURVE",
"215 -50 CURVE SMOOTH",
"234 -69 OFFCURVE",
"271 -73 OFFCURVE",
"297 -73 CURVE SMOOTH",
"314 -73 OFFCURVE",
"326 -71 OFFCURVE",
"326 -71 CURVE",
"326 -71 OFFCURVE",
"326 -20 OFFCURVE",
"326 5 CURVE",
"319 4 OFFCURVE",
"309 4 OFFCURVE",
"300 4 CURVE SMOOTH",
"286 4 OFFCURVE",
"272 5 OFFCURVE",
"266 7 CURVE SMOOTH",
"247 16 OFFCURVE",
"250 27 OFFCURVE",
"248 46 CURVE SMOOTH",
"245 65 OFFCURVE",
"250 123 OFFCURVE",
"243 186 CURVE SMOOTH",
"232 287 OFFCURVE",
"193 318 OFFCURVE",
"176 332 CURVE",
"188 339 OFFCURVE",
"216 365 OFFCURVE",
"233 424 CURVE SMOOTH",
"250 482 OFFCURVE",
"245 538 OFFCURVE",
"247 591 CURVE SMOOTH",
"249 645 OFFCURVE",
"248 643 OFFCURVE",
"263 654 CURVE SMOOTH",
"271 660 OFFCURVE",
"290 661 OFFCURVE",
"304 661 CURVE SMOOTH",
"316 661 OFFCURVE",
"326 660 OFFCURVE",
"326 660 CURVE",
"326 660 OFFCURVE",
"326 696 OFFCURVE",
"326 734 CURVE",
"321 734 OFFCURVE",
"309 735 OFFCURVE",
"296 735 CURVE"
);
}
);
width = 396;
},
{
layerId = "5B189D8C-80C2-4E76-949E-52A655B49706";
width = 600;
}
);
unicode = 007B;
},
{
glyphname = braceright;
lastChange = "2021-02-12 01:45:10 +0000";
layers = (
{
layerId = "EC678C9A-BAF7-4529-BA66-EDFBF106CBF7";
paths = (
{
closed = 1;
nodes = (
"87 735 OFFCURVE",
"75 734 OFFCURVE",
"70 734 CURVE",
"70 696 OFFCURVE",
"70 660 OFFCURVE",
"70 660 CURVE",
"70 660 OFFCURVE",
"80 661 OFFCURVE",
"92 661 CURVE SMOOTH",
"106 661 OFFCURVE",
"125 660 OFFCURVE",
"133 654 CURVE SMOOTH",
"148 643 OFFCURVE",
"147 645 OFFCURVE",
"149 591 CURVE SMOOTH",
"151 538 OFFCURVE",
"146 482 OFFCURVE",
"163 424 CURVE SMOOTH",
"180 365 OFFCURVE",
"208 339 OFFCURVE",
"220 332 CURVE",
"203 318 OFFCURVE",
"164 287 OFFCURVE",
"153 186 CURVE SMOOTH",
"146 123 OFFCURVE",
"151 65 OFFCURVE",
"148 46 CURVE SMOOTH",
"146 27 OFFCURVE",
"149 16 OFFCURVE",
"130 7 CURVE SMOOTH",
"124 5 OFFCURVE",
"110 4 OFFCURVE",
"96 4 CURVE SMOOTH",
"87 4 OFFCURVE",
"77 4 OFFCURVE",
"70 5 CURVE",
"70 -20 OFFCURVE",
"70 -71 OFFCURVE",
"70 -71 CURVE",
"70 -71 OFFCURVE",
"82 -73 OFFCURVE",
"99 -73 CURVE SMOOTH",
"125 -73 OFFCURVE",
"162 -69 OFFCURVE",
"181 -50 CURVE SMOOTH",
"214 -20 OFFCURVE",
"226 -10 OFFCURVE",
"225 93 CURVE SMOOTH",
"225 195 OFFCURVE",
"237 245 OFFCURVE",
"255 260 CURVE SMOOTH",
"272 276 OFFCURVE",
"286 293 OFFCURVE",
"326 295 CURVE",
"326 368 OFFCURVE",
"326 368 OFFCURVE",
"326 368 CURVE",
"326 368 OFFCURVE",
"326 367 OFFCURVE",
"324 367 CURVE SMOOTH",
"315 367 OFFCURVE",
"278 370 OFFCURVE",
"250 410 CURVE SMOOTH",
"217 456 OFFCURVE",
"227 589 OFFCURVE",
"225 615 CURVE SMOOTH",
"222 641 OFFCURVE",
"228 688 OFFCURVE",
"166 724 CURVE SMOOTH",
"148 733 OFFCURVE",
"121 735 OFFCURVE",
"100 735 CURVE"
);
}
);
width = 396;
},
{
layerId = "5B189D8C-80C2-4E76-949E-52A655B49706";
width = 600;
}
);
unicode = 007D;
},
{
glyphname = bracketleft;
lastChange = "2021-02-11 05:16:45 +0000";
layers = (
{
layerId = "EC678C9A-BAF7-4529-BA66-EDFBF106CBF7";
paths = (
{
closed = 1;
nodes = (
"138 735 LINE",
"138 -170 LINE",
"50 -170 LINE",
"50 735 LINE"
);
},
{
closed = 1;
nodes = (
"248 646 LINE",
"50 646 LINE",
"50 735 LINE",
"248 735 LINE"
);
},
{
closed = 1;
nodes = (
"248 -170 LINE",
"50 -170 LINE",
"50 -89 LINE",
"248 -89 LINE"
);
}
);
width = 298;
},
{
layerId = "5B189D8C-80C2-4E76-949E-52A655B49706";
width = 600;
}
);
unicode = 005B;
},
{
glyphname = bracketright;
lastChange = "2021-02-11 05:16:40 +0000";
layers = (
{
layerId = "EC678C9A-BAF7-4529-BA66-EDFBF106CBF7";
paths = (
{
closed = 1;
nodes = (
"160 -170 LINE",
"160 735 LINE",
"248 735 LINE",
"248 -170 LINE"
);
},
{
closed = 1;
nodes = (
"50 -81 LINE",
"248 -81 LINE",
"248 -170 LINE",
"50 -170 LINE"
);
},
{
closed = 1;
nodes = (
"50 735 LINE",
"248 735 LINE",
"248 654 LINE",
"50 654 LINE"
);
}
);
width = 298;
},
{
layerId = "5B189D8C-80C2-4E76-949E-52A655B49706";
width = 600;
}
);
unicode = 005D;
},
{
glyphname = hyphen;
lastChange = "2021-02-12 01:54:15 +0000";
layers = (
{
layerId = "EC678C9A-BAF7-4529-BA66-EDFBF106CBF7";
paths = (
{
closed = 1;
nodes = (
"451 297 LINE",
"60 297 LINE",
"60 203 LINE",
"451 203 LINE"
);
}
);
width = 511;
},
{
layerId = "5B189D8C-80C2-4E76-949E-52A655B49706";
width = 600;
}
);
unicode = 002D;
},
{
glyphname = underscore;
lastChange = "2021-02-11 05:09:26 +0000";
layers = (
{
layerId = "EC678C9A-BAF7-4529-BA66-EDFBF106CBF7";
paths = (
{
closed = 1;
nodes = (
"468 -141 LINE",
"468 -89 LINE",
"50 -89 LINE",
"50 -141 LINE"
);
}
);
width = 518;
},
{
layerId = "5B189D8C-80C2-4E76-949E-52A655B49706";
width = 600;
}
);
unicode = 005F;
},
{
glyphname = quotedblright;
lastChange = "2021-02-12 01:55:51 +0000";
layers = (
{
layerId = "EC678C9A-BAF7-4529-BA66-EDFBF106CBF7";
paths = (
{
closed = 1;
nodes = (
"98 735 LINE",
"60 523 LINE",
"125 523 LINE",
"211 735 LINE"
);
},
{
closed = 1;
nodes = (
"251 735 LINE",
"212 523 LINE",
"279 523 LINE",
"363 735 LINE"
);
},
{
closed = 1;
nodes = (
"98 735 LINE",
"60 523 LINE",
"125 523 LINE",
"211 735 LINE"
);
},
{
closed = 1;
nodes = (
"251 735 LINE",
"212 523 LINE",
"279 523 LINE",
"363 735 LINE"
);
}
);
width = 423;
},
{
layerId = "5B189D8C-80C2-4E76-949E-52A655B49706";
width = 600;
}
);
unicode = 201D;
},
{
glyphname = quotedbl;
lastChange = "2021-02-12 01:55:55 +0000";
layers = (
{
layerId = "EC678C9A-BAF7-4529-BA66-EDFBF106CBF7";
paths = (
{
closed = 1;
nodes = (
"173 523 LINE",
"208 735 LINE",
"144 735 LINE",
"60 523 LINE"
);
},
{
closed = 1;
nodes = (
"328 523 LINE",
"363 735 LINE",
"299 735 LINE",
"215 523 LINE"
);
}
);
width = 423;
},
{
layerId = "5B189D8C-80C2-4E76-949E-52A655B49706";
width = 600;
}
);
unicode = 0022;
},
{
glyphname = quotesingle;
lastChange = "2021-02-12 01:52:53 +0000";
layers = (
{
layerId = "EC678C9A-BAF7-4529-BA66-EDFBF106CBF7";
paths = (
{
closed = 1;
nodes = (
"81 735 LINE",
"50 523 LINE",
"126 523 LINE",
"209 735 LINE"
);
}
);
width = 239;
},
{
layerId = "5B189D8C-80C2-4E76-949E-52A655B49706";
width = 600;
}
);
unicode = 0027;
},
{
glyphname = dollar;
lastChange = "2021-02-12 01:11:48 +0000";
layers = (
{
layerId = "EC678C9A-BAF7-4529-BA66-EDFBF106CBF7";
paths = (
{
closed = 1;
nodes = (
"255 735 LINE",
"255 -92 LINE",
"331 -92 LINE",
"331 735 LINE"
);
},
{
closed = 1;
nodes = (
"290 691 OFFCURVE",
"280 690 OFFCURVE",
"270 690 CURVE SMOOTH",
"200 683 OFFCURVE",
"147 651 OFFCURVE",
"120 622 CURVE SMOOTH",
"93 594 OFFCURVE",
"69 551 OFFCURVE",
"70 508 CURVE SMOOTH",
"71 464 OFFCURVE",
"77 444 OFFCURVE",
"103 408 CURVE SMOOTH",
"126 371 OFFCURVE",
"181 342 OFFCURVE",
"210 330 CURVE SMOOTH",
"240 319 OFFCURVE",
"278 306 OFFCURVE",
"312 295 CURVE SMOOTH",
"346 283 OFFCURVE",
"385 262 OFFCURVE",
"405 233 CURVE SMOOTH",
"425 204 OFFCURVE",
"425 176 OFFCURVE",
"406 149 CURVE SMOOTH",
"387 123 OFFCURVE",
"356 107 OFFCURVE",
"322 102 CURVE SMOOTH",
"312 102 OFFCURVE",
"299 100 OFFCURVE",
"288 100 CURVE SMOOTH",
"259 100 OFFCURVE",
"227 105 OFFCURVE",
"203 118 CURVE SMOOTH",
"168 138 OFFCURVE",
"140 182 OFFCURVE",
"140 182 CURVE",
"140 182 OFFCURVE",
"86 153 OFFCURVE",
"50 133 CURVE",
"84 83 OFFCURVE",
"113 49 OFFCURVE",
"156 27 CURVE SMOOTH",
"198 7 OFFCURVE",
"242 1 OFFCURVE",
"269 1 CURVE SMOOTH",
"276 0 OFFCURVE",
"282 0 OFFCURVE",
"290 0 CURVE SMOOTH",
"315 0 OFFCURVE",
"345 3 OFFCURVE",
"383 14 CURVE SMOOTH",
"431 28 OFFCURVE",
"467 58 OFFCURVE",
"490 90 CURVE SMOOTH",
"514 121 OFFCURVE",
"528 171 OFFCURVE",
"521 220 CURVE SMOOTH",
"514 269 OFFCURVE",
"488 298 OFFCURVE",
"465 322 CURVE SMOOTH",
"441 344 OFFCURVE",
"403 363 OFFCURVE",
"382 372 CURVE SMOOTH",
"361 383 OFFCURVE",
"303 402 OFFCURVE",
"272 414 CURVE SMOOTH",
"256 422 OFFCURVE",
"189 440 OFFCURVE",
"177 484 CURVE SMOOTH",
"165 527 OFFCURVE",
"189 560 OFFCURVE",
"212 574 CURVE SMOOTH",
"233 588 OFFCURVE",
"260 595 OFFCURVE",
"291 595 CURVE SMOOTH",
"293 595 OFFCURVE",
"296 595 OFFCURVE",
"297 595 CURVE SMOOTH",
"332 593 OFFCURVE",
"348 583 OFFCURVE",
"370 570 CURVE SMOOTH",
"391 558 OFFCURVE",
"416 517 OFFCURVE",
"416 517 CURVE",
"506 558 LINE",
"506 558 OFFCURVE",
"506 558 OFFCURVE",
"494 582 CURVE SMOOTH",
"463 631 OFFCURVE",
"435 651 OFFCURVE",
"409 665 CURVE SMOOTH",
"388 677 OFFCURVE",
"352 691 OFFCURVE",
"298 691 CURVE"
);
}
);
width = 573;
},
{
layerId = "5B189D8C-80C2-4E76-949E-52A655B49706";
width = 600;
}
);
unicode = 0024;
},
{
glyphname = plus;
lastChange = "2021-02-12 01:00:45 +0000";
layers = (
{
layerId = "EC678C9A-BAF7-4529-BA66-EDFBF106CBF7";
paths = (
{
closed = 1;
nodes = (
"277 524 LINE",
"277 -24 LINE",
"370 -24 LINE",
"370 524 LINE"
);
},
{
closed = 1;
nodes = (
"597 305 LINE",
"50 305 LINE",
"50 211 LINE",
"597 211 LINE"
);
}
);
width = 647;
},
{
layerId = "5B189D8C-80C2-4E76-949E-52A655B49706";
width = 600;
}
);
unicode = 002B;
},
{
glyphname = equal;
lastChange = "2021-02-12 01:55:04 +0000";
layers = (
{
layerId = "EC678C9A-BAF7-4529-BA66-EDFBF106CBF7";
paths = (
{
closed = 1;
nodes = (
"617 441 LINE",
"70 441 LINE",
"70 363 LINE",
"617 363 LINE"
);
},
{
closed = 1;
nodes = (
"617 238 LINE",
"70 238 LINE",
"70 160 LINE",
"617 160 LINE"
);
}
);
width = 687;
},
{
layerId = "5B189D8C-80C2-4E76-949E-52A655B49706";
width = 600;
}
);
unicode = 003D;
},
{
glyphname = greater;
lastChange = "2021-02-12 01:56:41 +0000";
layers = (
{
layerId = "EC678C9A-BAF7-4529-BA66-EDFBF106CBF7";
paths = (
{
closed = 1;
nodes = (
"72 77 LINE",
"549 284 LINE",
"549 186 LINE",
"70 -28 LINE"
);
},
{
closed = 1;
nodes = (
"549 289 LINE",
"549 189 LINE",
"73 412 LINE",
"73 517 LINE"
);
}
);
width = 609;
},
{
layerId = "5B189D8C-80C2-4E76-949E-52A655B49706";
width = 600;
}
);
unicode = 003E;
},
{
glyphname = less;
lastChange = "2021-02-12 01:56:44 +0000";
layers = (
{
layerId = "EC678C9A-BAF7-4529-BA66-EDFBF106CBF7";
paths = (
{
closed = 1;
nodes = (
"60 186 LINE",
"60 284 LINE",
"537 77 LINE",
"539 -28 LINE"
);
},
{
closed = 1;
nodes = (
"536 412 LINE",
"60 189 LINE",
"60 289 LINE",
"536 517 LINE"
);
}
);
width = 609;
},
{
layerId = "5B189D8C-80C2-4E76-949E-52A655B49706";
width = 600;
}
);
unicode = 003C;
},
{
glyphname = asciitilde;
lastChange = "2021-02-11 05:07:12 +0000";
layers = (
{
layerId = "EC678C9A-BAF7-4529-BA66-EDFBF106CBF7";
paths = (
{
closed = 1;
nodes = (
"191 500 OFFCURVE",
"175 497 OFFCURVE",
"159 491 CURVE SMOOTH",
"128 478 OFFCURVE",
"98 455 OFFCURVE",
"73 414 CURVE SMOOTH",
"48 372 OFFCURVE",
"50 324 OFFCURVE",
"50 324 CURVE",
"50 324 OFFCURVE",
"83 324 OFFCURVE",
"112 324 CURVE SMOOTH",
"127 324 OFFCURVE",
"140 324 OFFCURVE",
"146 324 CURVE",
"146 345 OFFCURVE",
"155 361 OFFCURVE",
"161 372 CURVE SMOOTH",
"168 382 OFFCURVE",
"183 399 OFFCURVE",
"200 402 CURVE SMOOTH",
"202 402 OFFCURVE",
"204 402 OFFCURVE",
"205 402 CURVE SMOOTH",
"221 402 OFFCURVE",
"236 392 OFFCURVE",
"245 386 CURVE SMOOTH",
"256 380 OFFCURVE",
"274 365 OFFCURVE",
"303 343 CURVE SMOOTH",
"358 305 OFFCURVE",
"400 304 OFFCURVE",
"410 304 CURVE SMOOTH",
"410 304 OFFCURVE",
"411 304 OFFCURVE",
"411 304 CURVE SMOOTH",
"417 304 OFFCURVE",
"478 304 OFFCURVE",
"527 365 CURVE SMOOTH",
"577 425 OFFCURVE",
"572 489 OFFCURVE",
"572 489 CURVE",
"475 489 LINE",
"475 476 OFFCURVE",
"472 460 OFFCURVE",
"464 444 CURVE SMOOTH",
"457 428 OFFCURVE",
"433 401 OFFCURVE",
"411 401 CURVE SMOOTH",
"409 401 OFFCURVE",
"407 401 OFFCURVE",
"406 401 CURVE SMOOTH",
"381 405 OFFCURVE",
"357 423 OFFCURVE",
"330 444 CURVE SMOOTH",
"284 480 OFFCURVE",
"270 484 OFFCURVE",
"249 492 CURVE SMOOTH",
"238 496 OFFCURVE",
"223 500 OFFCURVE",
"206 500 CURVE"
);
}
);
width = 622;
},
{
layerId = "5B189D8C-80C2-4E76-949E-52A655B49706";
width = 600;
}
);
unicode = 007E;
},
{
glyphname = asciicircum;
lastChange = "2021-02-12 01:57:38 +0000";
layers = (
{
layerId = "EC678C9A-BAF7-4529-BA66-EDFBF106CBF7";
paths = (
{
closed = 1;
nodes = (
"171 321 LINE",
"359 735 LINE",
"265 735 LINE",
"78 321 LINE"
);
},
{
closed = 1;
nodes = (
"365 735 LINE",
"268 735 LINE",
"452 321 LINE",
"552 321 LINE"
);
}
);
width = 630;
},
{
layerId = "5B189D8C-80C2-4E76-949E-52A655B49706";
width = 600;
}
);
unicode = 005E;
},
{
glyphname = percent;
lastChange = "2021-02-12 01:58:24 +0000";
layers = (
{
layerId = "EC678C9A-BAF7-4529-BA66-EDFBF106CBF7";
paths = (
{
closed = 1;
nodes = (
"790 735 LINE",
"237 -45 LINE",
"136 -45 LINE",
"688 735 LINE"
);
},
{
closed = 1;
nodes = (
"349 735 OFFCURVE",
"430 655 OFFCURVE",
"430 557 CURVE",
"430 457 OFFCURVE",
"349 377 OFFCURVE",
"251 377 CURVE",
"152 377 OFFCURVE",
"73 457 OFFCURVE",
"73 557 CURVE",
"73 655 OFFCURVE",
"152 735 OFFCURVE",
"251 735 CURVE"
);
},
{
closed = 1;
nodes = (
"161 498 OFFCURVE",
"199 457 OFFCURVE",
"252 457 CURVE",
"308 457 OFFCURVE",
"349 499 OFFCURVE",
"349 552 CURVE",
"349 605 OFFCURVE",
"308 647 OFFCURVE",
"252 647 CURVE",
"199 647 OFFCURVE",
"161 607 OFFCURVE",
"161 552 CURVE"
);
},
{
closed = 1;
nodes = (
"758 312 OFFCURVE",
"838 233 OFFCURVE",
"838 133 CURVE",
"838 34 OFFCURVE",
"758 -45 OFFCURVE",
"659 -45 CURVE",
"562 -45 OFFCURVE",
"480 34 OFFCURVE",
"480 133 CURVE",
"480 233 OFFCURVE",
"562 312 OFFCURVE",
"659 312 CURVE"
);
},
{
closed = 1;
nodes = (
"568 74 OFFCURVE",
"606 34 OFFCURVE",
"661 34 CURVE SMOOTH",
"715 34 OFFCURVE",
"758 77 OFFCURVE",
"758 130 CURVE SMOOTH",
"758 183 OFFCURVE",
"715 224 OFFCURVE",
"661 224 CURVE SMOOTH",
"606 224 OFFCURVE",
"568 184 OFFCURVE",
"568 130 CURVE SMOOTH"
);
}
);
width = 911;
},
{
layerId = "5B189D8C-80C2-4E76-949E-52A655B49706";
width = 600;
}
);
unicode = 0025;
},
{
glyphname = at;
lastChange = "2021-02-12 01:59:21 +0000";
layers = (
{
layerId = "EC678C9A-BAF7-4529-BA66-EDFBF106CBF7";
paths = (
{
closed = 1;
nodes = (
"444 550 OFFCURVE",
"438 550 OFFCURVE",
"428 550 CURVE",
"348 544 OFFCURVE",
"276 517 OFFCURVE",
"208 468 CURVE",
"143 416 OFFCURVE",
"104 358 OFFCURVE",
"80 307 CURVE",
"58 258 OFFCURVE",
"53 215 OFFCURVE",
"50 163 CURVE",
"50 114 OFFCURVE",
"73 8 OFFCURVE",
"157 -50 CURVE",
"232 -102 OFFCURVE",
"289 -108 OFFCURVE",
"346 -108 CURVE",
"351 -108 OFFCURVE",
"357 -108 OFFCURVE",
"366 -108 CURVE",
"428 -108 OFFCURVE",
"494 -80 OFFCURVE",
"494 -80 CURVE",
"483 -25 LINE",
"483 -25 OFFCURVE",
"476 -25 OFFCURVE",
"441 -35 CURVE",
"422 -41 OFFCURVE",
"393 -44 OFFCURVE",
"363 -44 CURVE",
"331 -44 OFFCURVE",
"298 -41 OFFCURVE",
"270 -32 CURVE",
"217 -11 OFFCURVE",
"166 19 OFFCURVE",
"140 90 CURVE",
"110 163 OFFCURVE",
"136 246 OFFCURVE",
"136 246 CURVE",
"136 246 OFFCURVE",
"154 319 OFFCURVE",
"217 380 CURVE",
"280 444 OFFCURVE",
"337 465 OFFCURVE",
"375 474 CURVE",
"399 479 OFFCURVE",
"422 483 OFFCURVE",
"444 483 CURVE",
"455 483 OFFCURVE",
"470 479 OFFCURVE",
"486 479 CURVE",
"518 474 OFFCURVE",
"577 453 OFFCURVE",
"613 406 CURVE",
"652 358 OFFCURVE",
"658 319 OFFCURVE",
"661 294 CURVE",
"664 266 OFFCURVE",
"661 197 OFFCURVE",
"638 148 CURVE",
"613 103 OFFCURVE",
"584 103 OFFCURVE",
"580 103 CURVE",
"580 103 OFFCURVE",
"580 103 OFFCURVE",
"580 103 CURVE",
"580 103 OFFCURVE",
"580 103 OFFCURVE",
"580 103 CURVE",
"577 103 OFFCURVE",
"551 103 OFFCURVE",
"540 127 CURVE",
"527 154 OFFCURVE",
"540 215 OFFCURVE",
"540 215 CURVE",
"569 374 LINE",
"497 374 LINE",
"492 343 LINE",
"492 343 OFFCURVE",
"467 374 OFFCURVE",
"407 380 CURVE",
"402 380 OFFCURVE",
"396 380 OFFCURVE",
"393 380 CURVE",
"339 380 OFFCURVE",
"295 355 OFFCURVE",
"259 324 CURVE",
"222 288 OFFCURVE",
"190 230 OFFCURVE",
"199 163 CURVE",
"211 100 OFFCURVE",
"265 53 OFFCURVE",
"331 53 CURVE",
"334 53 OFFCURVE",
"334 53 OFFCURVE",
"337 53 CURVE",
"399 53 OFFCURVE",
"450 84 OFFCURVE",
"479 121 CURVE",
"488 84 OFFCURVE",
"521 41 OFFCURVE",
"580 41 CURVE",
"587 41 OFFCURVE",
"593 41 OFFCURVE",
"596 41 CURVE",
"667 51 OFFCURVE",
"703 103 OFFCURVE",
"715 130 CURVE",
"726 154 OFFCURVE",
"733 191 OFFCURVE",
"736 221 CURVE",
"742 251 OFFCURVE",
"739 294 OFFCURVE",
"736 319 CURVE",
"729 343 OFFCURVE",
"715 413 OFFCURVE",
"658 471 CURVE",
"605 522 OFFCURVE",
"523 550 OFFCURVE",
"453 550 CURVE"
);
},
{
closed = 1;
nodes = (
"402 315 OFFCURVE",
"453 312 OFFCURVE",
"461 260 CURVE SMOOTH",
"473 206 OFFCURVE",
"444 160 OFFCURVE",
"428 139 CURVE SMOOTH",
"414 121 OFFCURVE",
"375 96 OFFCURVE",
"334 109 CURVE SMOOTH",
"295 124 OFFCURVE",
"289 178 OFFCURVE",
"289 178 CURVE",
"289 178 OFFCURVE",
"283 234 OFFCURVE",
"324 279 CURVE SMOOTH",
"348 303 OFFCURVE",
"381 319 OFFCURVE",
"402 315 CURVE"
);
}
);
width = 789;
},
{
layerId = "5B189D8C-80C2-4E76-949E-52A655B49706";
width = 600;
}
);
unicode = 0040;
},
{
glyphname = ampersand;
lastChange = "2021-02-12 01:59:49 +0000";
layers = (
{
layerId = "EC678C9A-BAF7-4529-BA66-EDFBF106CBF7";
paths = (
{
closed = 1;
nodes = (
"247 735 OFFCURVE",
"244 735 OFFCURVE",
"239 735 CURVE",
"122 732 OFFCURVE",
"84 667 OFFCURVE",
"71 584 CURVE",
"59 503 OFFCURVE",
"113 445 OFFCURVE",
"177 391 CURVE",
"71 318 OFFCURVE",
"12 261 OFFCURVE",
"35 144 CURVE",
"55 40 OFFCURVE",
"163 0 OFFCURVE",
"246 0 CURVE",
"256 0 OFFCURVE",
"262 -1 OFFCURVE",
"276 1 CURVE",
"359 12 OFFCURVE",
"443 100 OFFCURVE",
"443 100 CURVE",
"535 8 LINE",
"670 8 LINE",
"514 176 LINE",
"602 263 LINE",
"602 404 LINE",
"445 247 LINE",
"445 247 OFFCURVE",
"359 340 OFFCURVE",
"320 383 CURVE",
"341 397 OFFCURVE",
"419 458 OFFCURVE",
"437 500 CURVE",
"465 571 OFFCURVE",
"440 626 OFFCURVE",
"424 652 CURVE",
"409 676 OFFCURVE",
"361 735 OFFCURVE",
"250 735 CURVE"
);
},
{
closed = 1;
nodes = (
"365 178 LINE",
"365 178 OFFCURVE",
"301 119 OFFCURVE",
"286 109 CURVE",
"270 100 OFFCURVE",
"208 60 OFFCURVE",
"143 135 CURVE",
"109 180 OFFCURVE",
"128 236 OFFCURVE",
"152 258 CURVE",
"174 280 OFFCURVE",
"232 325 OFFCURVE",
"232 325 CURVE"
);
},
{
closed = 1;
nodes = (
"254 441 OFFCURVE",
"184 509 OFFCURVE",
"171 530 CURVE SMOOTH",
"157 551 OFFCURVE",
"157 619 OFFCURVE",
"219 642 CURVE SMOOTH",
"256 655 OFFCURVE",
"330 647 OFFCURVE",
"348 581 CURVE SMOOTH",
"357 540 OFFCURVE",
"342 521 OFFCURVE",
"321 499 CURVE SMOOTH",
"299 477 OFFCURVE",
"254 441 OFFCURVE",
"254 441 CURVE"
);
}
);
width = 699;
},
{
layerId = "5B189D8C-80C2-4E76-949E-52A655B49706";
width = 600;
}
);
unicode = 0026;
},
{
glyphname = bar;
lastChange = "2021-02-12 02:01:05 +0000";
layers = (
{
layerId = "EC678C9A-BAF7-4529-BA66-EDFBF106CBF7";
paths = (
{
closed = 1;
nodes = (
"70 758 LINE",
"70 -84 LINE",
"168 -84 LINE",
"168 758 LINE"
);
}
);
width = 238;
},
{
layerId = "5B189D8C-80C2-4E76-949E-52A655B49706";
width = 600;
}
);
unicode = 007C;
},
{
glyphname = grave;
lastChange = "2021-02-12 02:01:31 +0000";
layers = (
{
layerId = "EC678C9A-BAF7-4529-BA66-EDFBF106CBF7";
paths = (
{
closed = 1;
nodes = (
"167 788 LINE",
"248 671 LINE",
"167 671 LINE",
"60 788 LINE"
);
}
